<svg xmlns="http://www.w3.org/2000/svg" width="76.163" height="61.559" viewBox="0 0 76.163 61.559">
  <defs>
    <style>
      .cls-1 {
        fill: #5a5a5a;
      }

      .cls-2 {
        fill: #444;
      }

      .cls-3 {
        fill: #ddeafb;
      }

      .cls-4 {
        fill: #cbe2ff;
      }

      .cls-5 {
        fill: #528fd8;
      }

      .cls-6 {
        fill: #0473ce;
      }

      .cls-7 {
        fill: #ffcebf;
      }

      .cls-8 {
        fill: #ffb09e;
      }

      .cls-9 {
        fill: #82aee3;
      }

      .cls-10 {
        fill: #0067c5;
      }

      .cls-11 {
        fill: #fff9df;
      }
    </style>
  </defs>
  <g id="coaching" transform="translate(0 -48.368)">
    <path id="Path_1103" data-name="Path 1103" class="cls-1" d="M107.377,49.116v3.417l-3.353.786-3.474-.786V49.116a.748.748,0,0,1,.748-.748h5.33A.748.748,0,0,1,107.377,49.116Z" transform="translate(-85.37)"/>
    <path id="Path_1104" data-name="Path 1104" class="cls-2" d="M126.913,49.117v3.416l-1.676.786-.928-.786V49.117a.749.749,0,0,0-.749-.749h2.6A.749.749,0,0,1,126.913,49.117Z" transform="translate(-104.907 0)"/>
    <path id="Path_1105" data-name="Path 1105" class="cls-1" d="M415.377,49.116v3.417l-3.49.635-3.336-.635V49.116a.748.748,0,0,1,.748-.748h5.33A.748.748,0,0,1,415.377,49.116Z" transform="translate(-346.873)"/>
    <path id="Path_1106" data-name="Path 1106" class="cls-2" d="M434.743,49.117v3.416l-1.692.308-.943-.308V49.117a.749.749,0,0,0-.749-.749h2.634A.749.749,0,0,1,434.743,49.117Z" transform="translate(-366.239 0)"/>
    <path id="Path_1107" data-name="Path 1107" class="cls-3" d="M118.462,79.28v37.446a3.322,3.322,0,0,1-3.322,3.322h-3.545l-6.083-.983-6.083.983H53.7a3.882,3.882,0,0,1-3.881-3.881V79.839A3.882,3.882,0,0,1,53.7,75.958H115.14A3.322,3.322,0,0,1,118.462,79.28Z" transform="translate(-42.299 -23.425)"/>
    <path id="Path_1108" data-name="Path 1108" class="cls-4" d="M467.745,79.279v37.447a3.322,3.322,0,0,1-3.323,3.321H461.21a3.323,3.323,0,0,0,3.323-3.321V79.279a3.323,3.323,0,0,0-3.323-3.321h3.213a3.322,3.322,0,0,1,3.323,3.321Z" transform="translate(-391.583 -23.425)"/>
    <path id="Path_1109" data-name="Path 1109" class="cls-5" d="M390.586,333.33v4.206H378.42V333.33a1.212,1.212,0,0,1,1.212-1.212h9.742A1.212,1.212,0,0,1,390.586,333.33Z" transform="translate(-321.291 -240.913)"/>
    <path id="Path_1110" data-name="Path 1110" class="cls-6" d="M434.931,333.33v4.206h-3.069V333.33a1.212,1.212,0,0,0-1.212-1.212h3.069A1.211,1.211,0,0,1,434.931,333.33Z" transform="translate(-365.636 -240.913)"/>
    <path id="Path_1111" data-name="Path 1111" class="cls-7" d="M330.852,217.341l-3.314-1.134-1.648-3.828,2.16-2.162,1.887-1.346C330.2,208.272,330.852,217.341,330.852,217.341Z" transform="translate(-276.691 -136.248)"/>
    <path id="Path_1112" data-name="Path 1112" class="cls-8" d="M343.645,203.993,343,212.446l-2.074-.71-.286-1.65.324-4.266a.521.521,0,0,0-.766-.5l1.994-1.994A.851.851,0,0,1,343.645,203.993Z" transform="translate(-288.843 -131.353)"/>
    <path id="Path_1113" data-name="Path 1113" class="cls-9" d="M85.837,237.23l-7.277,8.865a9.9,9.9,0,0,1-5.047,3.27L61.87,252.548a1.058,1.058,0,0,0-.779,1.02v11.364H37.31v-7.144a26.295,26.295,0,0,1,2.677-11.558,6.645,6.645,0,0,1,5.966-3.721H65.032a15.878,15.878,0,0,0,12.376-5.928l3.468-4.312,2.6,2.6Z" transform="translate(-31.677 -156.138)"/>
    <path id="Path_1114" data-name="Path 1114" class="cls-5" d="M198.1,251.866l-7.277,8.865a9.9,9.9,0,0,1-5.047,3.27l-11.643,3.184a1.058,1.058,0,0,0-.779,1.02v11.364H169.54V268.2a1.058,1.058,0,0,1,.779-1.02L181.962,264a9.9,9.9,0,0,0,5.047-3.27l8.738-11.223Z" transform="translate(-143.945 -170.775)"/>
    <path id="Path_1115" data-name="Path 1115" class="cls-7" d="M102.74,220.774v5.755a6.222,6.222,0,0,1-6.223,6.221c-.13,0-.26,0-.388-.013a6.218,6.218,0,0,1-5.833-6.208v-5.755Z" transform="translate(-76.664 -146.378)"/>
    <path id="Path_1116" data-name="Path 1116" class="cls-5" d="M262.2,124.482h-4.768a.7.7,0,0,1-.7-.7v-2.768a.7.7,0,0,1,.7-.7H262.2a.7.7,0,0,1,.7.7v2.768A.7.7,0,0,1,262.2,124.482Z" transform="translate(-217.977 -61.086)"/>
    <path id="Path_1117" data-name="Path 1117" class="cls-5" d="M262.2,180.457h-4.768a.7.7,0,0,1-.7-.7V176.99a.7.7,0,0,1,.7-.7H262.2a.7.7,0,0,1,.7.7v2.768A.7.7,0,0,1,262.2,180.457Z" transform="translate(-217.977 -108.611)"/>
    <path id="Path_1118" data-name="Path 1118" class="cls-7" d="M102.744,220.778v5.753a6.222,6.222,0,0,1-6.223,6.221c-.131,0-.261,0-.39-.012a6.079,6.079,0,0,1-1.271-.213,6.217,6.217,0,0,1-4.561-6v-5.753Z" transform="translate(-76.668 -146.382)"/>
    <path id="Path_1119" data-name="Path 1119" class="cls-8" d="M128.393,220.778v5.753a6.222,6.222,0,0,1-6.223,6.221c-.131,0-.261,0-.389-.012a6.079,6.079,0,0,1-1.271-.213,6.223,6.223,0,0,0,4.562-6v-5.753Z" transform="translate(-102.317 -146.382)"/>
    <path id="Path_1120" data-name="Path 1120" class="cls-1" d="M102.336,169.248a4.458,4.458,0,0,1-4.46,4.46H89.832v6.172a3.129,3.129,0,0,1-4.851,2.6,2.861,2.861,0,0,1-1.306-2.4c0-.1-.006-.193-.006-.29V171.3a3.58,3.58,0,0,1,3.581-3.582h3.111c2.216,0,3.044-1.75,4.863-2.551a5.972,5.972,0,0,1,2.651-.382A4.46,4.46,0,0,1,102.336,169.248Z" transform="translate(-71.039 -98.834)"/>
    <g id="Group_459" data-name="Group 459" transform="translate(13.342 65.943)">
      <path id="Path_1121" data-name="Path 1121" class="cls-2" d="M88.38,192.314a3.053,3.053,0,0,1,.219-.266C88.522,192.133,88.449,192.222,88.38,192.314Z" transform="translate(-88.38 -187.932)"/>
      <path id="Path_1122" data-name="Path 1122" class="cls-2" d="M96.134,223.938h1.076v6.172a3.129,3.129,0,0,1-4.851,2.6,2.922,2.922,0,0,0,1.378-2.6v-3.776A2.4,2.4,0,0,1,96.134,223.938Z" transform="translate(-91.759 -215.008)"/>
      <path id="Path_1123" data-name="Path 1123" class="cls-2" d="M162.133,169.257a4.458,4.458,0,0,1-4.46,4.46H154.1a4.56,4.56,0,0,0,4.561-4.457,4.462,4.462,0,0,0-3.139-4.265,6.844,6.844,0,0,1,2.151-.2A4.46,4.46,0,0,1,162.133,169.257Z" transform="translate(-144.178 -164.786)"/>
    </g>
    <path id="Path_1124" data-name="Path 1124" class="cls-10" d="M33.631,441.132H1.132a1.132,1.132,0,1,0,0,2.264h32.5a1.132,1.132,0,1,0,0-2.264Z" transform="translate(0 -333.47)"/>
    <g id="Group_460" data-name="Group 460" transform="translate(48.066 60.181)">
      <path id="Path_1125" data-name="Path 1125" class="cls-11" d="M339.616,128.878h-20.1a1.132,1.132,0,1,1,0-2.264h20.1a1.132,1.132,0,1,1,0,2.264Z" transform="translate(-318.386 -126.614)"/>
    </g>
    <g id="Group_461" data-name="Group 461" transform="translate(48.066 68.631)">
      <path id="Path_1126" data-name="Path 1126" class="cls-11" d="M324.48,184.854h-4.962a1.132,1.132,0,0,1,0-2.264h4.962a1.132,1.132,0,1,1,0,2.264Z" transform="translate(-318.386 -182.59)"/>
    </g>
  </g>
</svg>
