<svg xmlns="http://www.w3.org/2000/svg" xmlns:xlink="http://www.w3.org/1999/xlink" width="212" height="150" viewBox="0 0 212 150">
  <defs>
    <style>
      .cls-1 {
        fill: #fff;
      }

      .cls-2 {
        fill: #e9efff;
      }

      .cls-3 {
        fill: #1e4091;
        font-size: 19px;
        font-family: Montserrat-Bold, Montserrat;
        font-weight: 700;
      }

      .cls-4 {
        fill: #0784ff;
      }

      .cls-5 {
        fill: #005eee;
      }

      .cls-6 {
        fill: #b8c2ff;
      }

      .cls-7 {
        fill: #7388ff;
      }

      .cls-8 {
        fill: #dfe5ff;
      }

      .cls-9 {
        fill: #ccd4ff;
      }

      .cls-10 {
        fill: #eff2ff;
      }

      .cls-11 {
        fill: #a4b1ff;
      }

      .cls-12 {
        fill: #002755;
      }

      .cls-13 {
        fill: gold;
      }

      .cls-14 {
        filter: url(#Rectangle_608);
      }
    </style>
    <filter id="Rectangle_608" x="0" y="0" width="212" height="150" filterUnits="userSpaceOnUse">
      <feOffset dy="3" input="SourceAlpha"/>
      <feGaussianBlur stdDeviation="3" result="blur"/>
      <feFlood flood-opacity="0.302"/>
      <feComposite operator="in" in2="blur"/>
      <feComposite in="SourceGraphic"/>
    </filter>
  </defs>
  <g id="Group_820" data-name="Group 820" transform="translate(-1373 -1625)">
    <g class="cls-14" transform="matrix(1, 0, 0, 1, 1373, 1625)">
      <rect id="Rectangle_608-2" data-name="Rectangle 608" class="cls-1" width="194" height="132" rx="10" transform="translate(9 6)"/>
    </g>
    <rect id="Rectangle_666" data-name="Rectangle 666" class="cls-2" width="194" height="94" transform="translate(1382 1631)"/>
    <text id="SL_Arora" data-name="SL Arora" class="cls-3" transform="translate(1437 1747)"><tspan x="0" y="0">SL Arora</tspan></text>
    <g id="surface1" transform="translate(1443.307 1649.761)">
      <path id="Path_1498" data-name="Path 1498" class="cls-4" d="M276.245,475.7a6.4,6.4,0,1,1-6.4-6.4A6.4,6.4,0,0,1,276.245,475.7Zm0,0" transform="translate(-234.672 -418.05)"/>
      <path id="Path_1499" data-name="Path 1499" class="cls-4" d="M86.835,117.05l-25.583-3.2-25.583,3.2a6.4,6.4,0,0,1-6.4-6.4V69.082a6.4,6.4,0,0,1,6.4-6.4l19.187-3.2a6.4,6.4,0,0,1,6.4,6.4,6.4,6.4,0,0,1,6.4-6.4l19.187,3.2a6.4,6.4,0,0,1,6.4,6.4v41.572A6.4,6.4,0,0,1,86.835,117.05Zm0,0" transform="translate(-26.075 -53)"/>
      <path id="Path_1500" data-name="Path 1500" class="cls-5" d="M30.872,498.328a1.6,1.6,0,0,0-1.6,1.6v1.626a6.4,6.4,0,0,0,6.4,6.4l20.492-2.562a6.365,6.365,0,0,0,5.091,2.562h.8l.012,0h.106l.012,0H62.2l.018,0h.063l.009,0h0l.012,0h0l.008,0h.067l.009,0h0l.012,0h0l.015,0h.062l.007,0h.018l.012,0h.055l.007,0h.005l.007,0h.018l.008,0h0l.012,0h0l.009,0h0l.007,0,.012,0h.018l.006,0h.006l.006,0h.006l.007,0,.017,0h0l.01,0h0l.008,0h.005l.006,0h.006l.006,0h.006l.006,0h.006l.006,0,.006,0h.006l.013,0h.006l.012,0h0l.008,0,.006,0,.006,0,.006,0h.006l.006,0,.006,0,.006,0h.006l.006,0h.006l.018-.005.007,0,.006,0,.011,0,.03-.009.006,0,.006,0h.006l.006,0h.006l.006,0,.006,0,.006,0,.006,0,.006,0,.006,0,.01,0,.007,0,.006,0,.006,0,.006,0,.006,0,.006,0,.006,0,.006,0,.006,0,.029-.01h.005l.007,0h0l.016-.005h0l.012,0,.006,0,.006,0,.006,0,0,0,.007,0,.038-.013.025-.009H63.3l.006,0,0,0,.007,0,0,0,.007,0h0l.006,0,.017-.006.006,0,0,0,.007,0h0l.018-.006h0l.007,0,0,0,.007,0h0l.007,0,0,0,.007,0,0,0,.007,0,0,0,.006,0,0,0,.007,0,0,0,.027-.01h0l.008,0,0,0,.007,0,0,0,.007,0,0,0,.007,0h0l.007,0,0,0,.007,0h0l.008,0h0l.03-.012.009,0h0l.008,0h0l.007,0,0,0,.007,0,0,0,.008,0h0l.008,0h0l.04-.017h0l.009,0h0l.008,0h0l.008,0h0l.008,0h0l.008,0h0l.008,0h0l.039-.017h0l.008,0h0l.008,0h0l.008,0h0l.008,0h0l.009,0h0l.05-.023h0l.009,0h0l.009,0h0l.008,0h0l.008,0h0l.009,0h0l.05-.024h0l.009,0,.01-.005h0l.008,0,.012-.006.059-.03h0l.008,0h0l.008,0h0l.009,0h0l.009-.005.05-.026.009-.005h0l.009-.005h0l.009-.005h0l.01-.005.08-.044.1-.056a1.6,1.6,0,0,0-1.619-2.758,3.07,3.07,0,0,1-1.569.425,3.168,3.168,0,0,1-2.538-1.29,3.2,3.2,0,0,0-2.949-1.247L35.5,504.748a3.2,3.2,0,0,1-3.032-3.194v-1.627A1.6,1.6,0,0,0,30.872,498.328Zm39.463,4.348a1.6,1.6,0,0,0-.2,3.186l9.578,1.2h0l.06.008.014,0,.5.062H80.3l.014,0h0l.03,0,.022,0,.078.009.023,0,.438.055.019,0,.023,0,.014,0,.013,0h0l.345.043h.008l.363.046h0l.087.011H81.8l.06.008h.009l.108.014.014,0,.012,0,.13.016h0l.042.005h0l.02,0h0l.041.005h.008l.013,0h0l.06.007.026,0,.038,0h.009l.017,0h.01l.054.007h.02l.036,0h.012l.026,0,.081.01.013,0h.006l.03,0,.017,0,.031,0h.015l.059.007.012,0h0l.015,0,.034,0,.031,0,.065.008.017,0,.017,0,.026,0h.01l.026,0,.012,0,.035,0h.01l.077.009.04.005h0l.035,0H83.3l.031,0h.006l.036,0h.006l.176.022h0l.014,0h.009l.024,0,.018,0,.021,0h.009l.036,0,.012,0,.07.008h0l.167.021.058.007h.008l.029,0h.008l.012,0,.046.006h.015l.02,0,.07.009.014,0,.023,0,.017,0h.009l.026,0,.044.006.024,0,.015,0,.134.017h0l.137.017h0l.064.008h.006l.012,0,.041.005h.015l.062.008h0l.19.023h.006l.122.015.117.015h.02l.719.09h0l.084.011h.013l.294.037h0l.224.028h0l.186.023h.512l.022,0h.079l.021,0h.179l.022,0h.078l.032,0h.067l.032-.006h0l.009,0,.01,0h.057l.021,0h0l.009,0h.046l.008,0h0l.009,0h0l.021,0h0l.01,0h0l.008,0h0l.008,0h0l.008,0h0l.008,0h0l.009,0h0l.01,0h0l.021,0h0l.01,0h0l.009,0h0l.008,0h0l.008,0h0l.007,0h0l.008,0h0l.009,0h0l.01,0h0l.021,0h0l.009,0h0l.008,0h0l.007,0h0l.007,0h0l.007,0h0l.008,0h0l.031-.008h0l.009,0h0l.008,0h0l.007,0h0l.007,0h0l.007,0h0l.008,0h0l.01,0h0l.021-.006h0l.01,0h0l.008,0h0l.007,0h0l.007,0h0l.008,0h0l.007,0h0l.009,0h0l.021-.006h0l.009,0h0l.008,0h0l.007,0h0l.007,0h0l.008,0h0l.008,0h0l.009,0h0l.031-.009h0l.008,0h0l.008,0h0l.008,0h0l.008,0h0l.009,0h0l.01,0h0l.03-.009.013,0,.007,0h0l.007,0h0l.007,0h0l.007,0h0l.007,0h0l.009,0h0l.01,0h0l.009,0h0l.008,0h0l.007,0h0l.01,0,.006,0h0l.006,0h0l.006,0h0l.006,0,0,0,.008,0,0,0,.007,0h0l.006,0h0l.005,0,0,0,.006,0h0l.006,0h0l.006,0,0,0,.006,0h0l.006,0h0l.02-.007h0l.006,0,0,0,.006,0h0l.006,0,0,0,.005,0,0,0,0,0,.005,0,.009,0,.006,0,0,0,.006,0,.005,0,.008,0,0,0,.006,0,0,0,.006,0,0,0,.006,0,0,0,.005,0,0,0,0,0,0,0,.005,0,0,0,0,0,0,0,0,0,.008,0,.006,0,.006,0,0,0,.006,0,0,0,.006,0,0,0,.006,0,0,0,.006,0,0,0,.006,0,0,0,.006,0,0,0,.006,0h0l.021-.009h0l.006,0h0l.006,0,0,0,.006,0h0l.006,0h0l.009,0,.006,0h0l.007,0h0l.035-.015.008,0h0l.007,0h0l.007,0h0l.007,0h0l.007,0h0l.052-.024h0l.008,0,.009,0h0l.008,0h0l.061-.029.009,0h0l.008,0h0a6.417,6.417,0,0,0,2.1-1.634,1.6,1.6,0,0,0-2.446-2.059A3.194,3.194,0,0,1,87,504.747l-16.465-2.058A1.562,1.562,0,0,0,70.335,502.677Zm0,0" transform="translate(-26.075 -443.899)"/>
      <path id="Path_1501" data-name="Path 1501" class="cls-6" d="M6.4,59.488H63.957a6.4,6.4,0,0,1,6.4,6.4v38.375a6.4,6.4,0,0,1-6.4,6.4H6.4a6.4,6.4,0,0,1-6.4-6.4V65.884A6.4,6.4,0,0,1,6.4,59.488Zm0,0" transform="translate(0 -53)"/>
      <path id="Path_1502" data-name="Path 1502" class="cls-7" d="M560.977,88.762a4.8,4.8,0,0,1,4.8,4.8v35.177a4.8,4.8,0,1,1-9.594,0V93.559A4.8,4.8,0,0,1,560.977,88.762Zm0,0" transform="translate(-495.42 -79.076)"/>
      <path id="Path_1503" data-name="Path 1503" class="cls-8" d="M61.252,90.056l-26.22-2.622a6.4,6.4,0,0,1-5.759-6.364V42.759a6.4,6.4,0,0,1,6.4-6.4q.319,0,.637.032L61.252,38.89Zm0,0" transform="translate(-26.075 -32.402)"/>
      <path id="Path_1504" data-name="Path 1504" class="cls-9" d="M322,90.056l26.219-2.622a6.4,6.4,0,0,0,5.759-6.364V42.759a6.4,6.4,0,0,0-6.4-6.4q-.319,0-.636.032L322,38.89Zm0,0" transform="translate(-286.823 -32.402)"/>
      <path id="Path_1505" data-name="Path 1505" class="cls-6" d="M399.741,59.488a3.2,3.2,0,0,0-3.2,3.2h0v38.375H383.751a3.2,3.2,0,0,0,0,6.4h12.791a6.4,6.4,0,0,0,6.4-6.4V62.686a3.2,3.2,0,0,0-3.2-3.2Zm0,0" transform="translate(-338.981 -53)"/>
      <path id="Path_1506" data-name="Path 1506" class="cls-10" d="M113.4,3.608,93.444.384a5.007,5.007,0,0,0-5.628,4.968v40.5a6.4,6.4,0,0,0,5.69,6.357L113.4,54.774Zm0,0" transform="translate(-78.223 -0.318)"/>
      <path id="Path_1507" data-name="Path 1507" class="cls-8" d="M322,3.389,341.955.138a5.007,5.007,0,0,1,5.628,4.968V45a6.4,6.4,0,0,1-5.69,6.357L322,54.555Zm0,0" transform="translate(-286.823 -0.099)"/>
      <path id="Path_1508" data-name="Path 1508" class="cls-9" d="M325.2,30.215a3.2,3.2,0,0,1,3.2,3.2V78.183a3.2,3.2,0,0,1-6.4,0V33.413A3.2,3.2,0,0,1,325.2,30.215Zm0,0" transform="translate(-286.823 -26.925)"/>
      <path id="Path_1509" data-name="Path 1509" class="cls-11" d="M323.6,59.488a1.6,1.6,0,0,1,1.6,1.6V102.66a1.6,1.6,0,1,1-3.2,0V61.087A1.6,1.6,0,0,1,323.6,59.488Zm0,0" transform="translate(-286.823 -53)"/>
      <path id="Path_1510" data-name="Path 1510" class="cls-11" d="M383.744,30.215a3.2,3.2,0,0,1,3.2,3.2V59a3.2,3.2,0,0,1-6.4,0V33.413A3.2,3.2,0,0,1,383.744,30.215Zm0,0" transform="translate(-338.974 -26.925)"/>
      <path id="Path_1511" data-name="Path 1511" class="cls-12" d="M134.68,270.792a1.564,1.564,0,0,1-.315-.032l-15.989-3.2a1.6,1.6,0,0,1,.628-3.135l15.989,3.2a1.6,1.6,0,0,1-.312,3.167Zm0,0" transform="translate(-104.299 -235.523)"/>
      <path id="Path_1512" data-name="Path 1512" class="cls-12" d="M134.68,183a1.565,1.565,0,0,1-.315-.031l-15.989-3.2a1.6,1.6,0,1,1,.628-3.135l15.989,3.2A1.6,1.6,0,0,1,134.68,183Zm0,0" transform="translate(-104.299 -157.324)"/>
      <path id="Path_1513" data-name="Path 1513" class="cls-12" d="M199.867,108.17a1.565,1.565,0,0,1-.315-.032l-7.995-1.6a1.6,1.6,0,0,1-1.254-1.882,1.583,1.583,0,0,1,1.849-1.26l.032.006,7.994,1.6a1.6,1.6,0,0,1-.312,3.167Zm0,0" transform="translate(-169.485 -92.088)"/>
      <path id="Path_1514" data-name="Path 1514" class="cls-12" d="M134.7,358.631a1.539,1.539,0,0,1-.315-.031l-15.989-3.2a1.6,1.6,0,0,1,.628-3.136l15.989,3.2a1.6,1.6,0,0,1-.312,3.166Zm0,0" transform="translate(-104.314 -313.767)"/>
      <path id="Path_1515" data-name="Path 1515" class="cls-12" d="M352.871,270.792a1.6,1.6,0,0,1-.312-3.167l15.989-3.2a1.6,1.6,0,0,1,.628,3.135l-15.989,3.2A1.563,1.563,0,0,1,352.871,270.792Zm0,0" transform="translate(-312.899 -235.523)"/>
      <path id="Path_1516" data-name="Path 1516" class="cls-12" d="M352.871,183a1.6,1.6,0,0,1-.312-3.167l15.989-3.2a1.6,1.6,0,1,1,.628,3.136l-15.989,3.2A1.565,1.565,0,0,1,352.871,183Zm0,0" transform="translate(-312.899 -157.321)"/>
      <path id="Path_1517" data-name="Path 1517" class="cls-12" d="M352.871,95.156a1.6,1.6,0,0,1-.312-3.167l15.989-3.2a1.6,1.6,0,0,1,.628,3.136l-15.989,3.2A1.566,1.566,0,0,1,352.871,95.156Zm0,0" transform="translate(-312.899 -79.074)"/>
      <path id="Path_1518" data-name="Path 1518" class="cls-12" d="M352.871,358.63a1.6,1.6,0,0,1-.312-3.166l15.989-3.2a1.6,1.6,0,0,1,.628,3.135l-15.989,3.2A1.533,1.533,0,0,1,352.871,358.63Zm0,0" transform="translate(-312.899 -313.766)"/>
      <path id="Path_1519" data-name="Path 1519" class="cls-13" d="M354.471.941a3.2,3.2,0,0,1,3.2,3.2V29.723a3.2,3.2,0,0,1-6.4,0V4.139A3.2,3.2,0,0,1,354.471.941Zm0,0" transform="translate(-312.899 -0.849)"/>
      <path id="Path_1520" data-name="Path 1520" class="cls-12" d="M123.486,62.686a3.2,3.2,0,1,1-3.2-3.2A3.2,3.2,0,0,1,123.486,62.686Zm0,0" transform="translate(-104.298 -53)"/>
    </g>
  </g>
</svg>
