<svg xmlns="http://www.w3.org/2000/svg" xmlns:xlink="http://www.w3.org/1999/xlink" width="213" height="149" viewBox="0 0 213 149">
  <defs>
    <style>
      .cls-1 {
        fill: #fff;
      }

      .cls-2 {
        fill: #ffe9d6;
      }

      .cls-3 {
        fill: #1e4091;
        font-size: 19px;
        font-family: Montserrat-Bold, Montserrat;
        font-weight: 700;
      }

      .cls-4 {
        fill: #fc5a36;
      }

      .cls-5 {
        fill: #d9ecfd;
      }

      .cls-6 {
        fill: #c5e2ff;
      }

      .cls-7 {
        fill: #ffe378;
      }

      .cls-8 {
        fill: #ffc85e;
      }

      .cls-9 {
        fill: #456b93;
      }

      .cls-10 {
        filter: url(#Rectangle_603);
      }
    </style>
    <filter id="Rectangle_603" x="0" y="0" width="213" height="149" filterUnits="userSpaceOnUse">
      <feOffset dy="3" input="SourceAlpha"/>
      <feGaussianBlur stdDeviation="3" result="blur"/>
      <feFlood flood-opacity="0.302"/>
      <feComposite operator="in" in2="blur"/>
      <feComposite in="SourceGraphic"/>
    </filter>
  </defs>
  <g id="Group_819" data-name="Group 819" transform="translate(-1165 -1622)">
    <g class="cls-10" transform="matrix(1, 0, 0, 1, 1165, 1622)">
      <rect id="Rectangle_603-2" data-name="Rectangle 603" class="cls-1" width="195" height="131" rx="10" transform="translate(9 6)"/>
    </g>
    <rect id="Rectangle_663" data-name="Rectangle 663" class="cls-2" width="195" height="93" transform="translate(1174 1628)"/>
    <text id="KC_Sinha" data-name="KC Sinha" class="cls-3" transform="translate(1227 1741)"><tspan x="0" y="0">KC Sinha</tspan></text>
    <g id="open-book" transform="translate(1237.355 1649.766)">
      <path id="Path_1432" data-name="Path 1432" class="cls-4" d="M64.483,98.966H60.368L32.688,101.52,5.009,98.966H.894A.894.894,0,0,0,0,99.86v40.784a.894.894,0,0,0,.894.894H28.273a.882.882,0,0,1,.705.345,4.647,4.647,0,0,0,7.42,0,.882.882,0,0,1,.705-.345H64.483a.894.894,0,0,0,.894-.894V99.86A.894.894,0,0,0,64.483,98.966Z" transform="translate(0 -94.033)"/>
      <path id="Path_1433" data-name="Path 1433" class="cls-5" d="M66.908,103.394,39.229,97.929v-36.7a.894.894,0,0,1,.894-.894h20a6.781,6.781,0,0,1,6.781,6.781Z" transform="translate(-34.22 -60.335)"/>
      <path id="Path_1434" data-name="Path 1434" class="cls-6" d="M39.23,97.926v-36.7a.894.894,0,0,1,.894-.894h2.554a.894.894,0,0,0-.894.894v36.7Z" transform="translate(-34.221 -60.332)"/>
      <path id="Path_1435" data-name="Path 1435" class="cls-5" d="M256,103.394l27.679-5.465v-36.7a.894.894,0,0,0-.894-.894H262.78A6.781,6.781,0,0,0,256,67.116v36.278Z" transform="translate(-223.311 -60.335)"/>
      <path id="Path_1436" data-name="Path 1436" class="cls-6" d="M265.334,60.332a6.781,6.781,0,0,0-6.78,6.78v35.775l-2.554.5V67.112a6.78,6.78,0,0,1,6.78-6.78Z" transform="translate(-223.312 -60.332)"/>
      <path id="Path_1437" data-name="Path 1437" class="cls-7" d="M66.908,360.215H40.123a.894.894,0,0,1-.894-.894V354.75H61.6a5.3,5.3,0,0,1,5.3,5.3v.161Z" transform="translate(-34.22 -317.156)"/>
      <path id="Path_1438" data-name="Path 1438" class="cls-8" d="M42.678,360.217H40.124a.894.894,0,0,1-.894-.894v-4.571h2.554v4.571A.894.894,0,0,0,42.678,360.217Z" transform="translate(-34.221 -317.158)"/>
      <path id="Path_1439" data-name="Path 1439" class="cls-7" d="M256,360.215h26.785a.894.894,0,0,0,.894-.894V354.75H261.3a5.3,5.3,0,0,0-5.3,5.3Z" transform="translate(-223.312 -317.156)"/>
      <path id="Path_1440" data-name="Path 1440" class="cls-9" d="M393.233,354.75v12.066a.308.308,0,0,0,.466.265l1.74-1.032a.894.894,0,0,1,.912,0l1.74,1.032a.308.308,0,0,0,.466-.265V354.75Z" transform="translate(-343.021 -317.156)"/>
      <path id="Path_1441" data-name="Path 1441" class="cls-6" d="M97.495,111.826H82.4a.894.894,0,0,1-.894-.894v-5.294a.894.894,0,0,1,.894-.894h15.1a.894.894,0,0,1,.894.894v5.294A.894.894,0,0,1,97.495,111.826Z" transform="translate(-71.099 -99.073)"/>
      <g id="Group_602" data-name="Group 602" transform="translate(9.421 17.511)">
        <g id="Group_601" data-name="Group 601">
          <g id="Group_597" data-name="Group 597">
            <path id="Path_1442" data-name="Path 1442" class="cls-9" d="M91.828,199.441H74.766a.987.987,0,1,1,0-1.973H91.828a.987.987,0,1,1,0,1.973Z" transform="translate(-73.779 -197.468)"/>
          </g>
          <g id="Group_598" data-name="Group 598" transform="translate(0 4.473)">
            <path id="Path_1443" data-name="Path 1443" class="cls-9" d="M91.828,234.47H74.766a.987.987,0,0,1,0-1.973H91.828a.987.987,0,0,1,0,1.973Z" transform="translate(-73.779 -232.497)"/>
          </g>
          <g id="Group_599" data-name="Group 599" transform="translate(0 8.946)">
            <path id="Path_1444" data-name="Path 1444" class="cls-9" d="M91.828,269.5H74.766a.987.987,0,1,1,0-1.973H91.828a.987.987,0,1,1,0,1.973Z" transform="translate(-73.779 -267.526)"/>
          </g>
          <g id="Group_600" data-name="Group 600" transform="translate(0 13.418)">
            <path id="Path_1445" data-name="Path 1445" class="cls-9" d="M83.3,304.528H74.766a.987.987,0,0,1,0-1.973H83.3a.987.987,0,0,1,0,1.973Z" transform="translate(-73.779 -302.555)"/>
          </g>
        </g>
      </g>
      <g id="Group_608" data-name="Group 608" transform="translate(37.054 5.057)">
        <g id="Group_607" data-name="Group 607">
          <g id="Group_603" data-name="Group 603">
            <path id="Path_1446" data-name="Path 1446" class="cls-9" d="M308.239,101.909H291.177a.987.987,0,0,1,0-1.973h17.063a.987.987,0,1,1,0,1.973Z" transform="translate(-290.19 -99.936)"/>
          </g>
          <g id="Group_604" data-name="Group 604" transform="translate(0 4.473)">
            <path id="Path_1447" data-name="Path 1447" class="cls-9" d="M308.239,136.938H291.177a.987.987,0,0,1,0-1.973h17.063a.987.987,0,1,1,0,1.973Z" transform="translate(-290.19 -134.965)"/>
          </g>
          <g id="Group_605" data-name="Group 605" transform="translate(0 8.946)">
            <path id="Path_1448" data-name="Path 1448" class="cls-9" d="M308.239,171.967H291.177a.987.987,0,0,1,0-1.973h17.063a.987.987,0,1,1,0,1.973Z" transform="translate(-290.19 -169.994)"/>
          </g>
          <g id="Group_606" data-name="Group 606" transform="translate(0 13.418)">
            <path id="Path_1449" data-name="Path 1449" class="cls-9" d="M299.708,207h-8.531a.987.987,0,0,1,0-1.973h8.531a.987.987,0,0,1,0,1.973Z" transform="translate(-290.19 -205.023)"/>
          </g>
        </g>
      </g>
    </g>
  </g>
</svg>
