<svg xmlns="http://www.w3.org/2000/svg" xmlns:xlink="http://www.w3.org/1999/xlink" width="1611" height="1016" viewBox="0 0 1611 1016">
  <defs>
    <style>
      .cls-1, .cls-2 {
        opacity: 0.05;
        fill: url(#linear-gradient);
      }

      .cls-2 {
        stroke: #707070;
      }

      .cls-3, .cls-4 {
        stroke: none;
      }

      .cls-4 {
        fill: #707070;
      }

      .cls-5 {
        fill: none;
      }
    </style>
    <linearGradient id="linear-gradient" x1="0.5" x2="0.5" y2="1" gradientUnits="objectBoundingBox">
      <stop offset="0" stop-color="#4baea0"/>
      <stop offset="1" stop-color="#5268ba"/>
    </linearGradient>
  </defs>
  <g id="Group_407" data-name="Group 407" transform="translate(461 -598)">
    <g id="Path_1871" data-name="Path 1871" class="cls-1" transform="translate(-174 804)">
      <path class="cls-3" d="M 662 809.5 C 639.4290161132812 809.5 616.6668090820312 808.7968139648438 594.3453369140625 807.4099731445312 C 572.34716796875 806.0431518554688 550.24267578125 803.9793090820312 528.64599609375 801.2756958007812 C 507.3290100097656 798.6069946289062 485.9945068359375 795.2509765625 465.2349853515625 791.3008422851562 C 444.7080078125 787.3948364257812 424.2553405761719 782.815185546875 404.4450073242188 777.6890258789062 C 365.2411804199219 767.5444946289062 327.4295043945312 754.9886474609375 292.0604858398438 740.370361328125 C 257.0304870605469 725.8920288085938 224.0908355712891 709.26513671875 194.1561737060547 690.95166015625 C 179.2456665039062 681.8296508789062 164.8826599121094 672.1614990234375 151.4663391113281 662.2160034179688 C 138.0183258056641 652.246826171875 125.2093353271484 641.767333984375 113.3948364257812 631.0686645507812 C 101.5243301391602 620.3193359375 90.38066864013672 609.0974731445312 80.27366638183594 597.7150268554688 C 70.09566497802734 586.252685546875 60.72916793823242 574.3573608398438 52.43450164794922 562.3599853515625 C 44.06366729736328 550.2523193359375 36.58566665649414 537.7525024414062 30.20783424377441 525.2080078125 C 23.75900077819824 512.523193359375 18.28016662597656 499.4874877929688 13.92366695404053 486.4630126953125 C 9.510499954223633 473.2691650390625 6.141833305358887 459.7655029296875 3.91100001335144 446.3269958496094 C 1.647666692733765 432.6918334960938 0.5 418.7875061035156 0.5 405 C 0.5 391.2124938964844 1.647666692733765 377.3081665039062 3.91100001335144 363.6730041503906 C 6.141833305358887 350.2344970703125 9.510499954223633 336.7308349609375 13.92366695404053 323.5369873046875 C 18.28016662597656 310.5125122070312 23.75900077819824 297.4768371582031 30.20783424377441 284.7919921875 C 36.58566665649414 272.2474975585938 44.06366729736328 259.7476806640625 52.43450164794922 247.6399993896484 C 60.72916793823242 235.6426696777344 70.09566497802734 223.7473297119141 80.27366638183594 212.2850036621094 C 90.38066864013672 200.9024963378906 101.5243301391602 189.6806640625 113.3948364257812 178.9313354492188 C 125.2093353271484 168.232666015625 138.0183258056641 157.753173828125 151.4663391113281 147.7839965820312 C 164.8826599121094 137.8385009765625 179.2456665039062 128.1703338623047 194.1561737060547 119.0483322143555 C 224.0908355712891 100.7348327636719 257.0304870605469 84.10800170898438 292.0604858398438 69.62966918945312 C 327.4295043945312 55.01133346557617 365.2411804199219 42.45550155639648 404.4450073242188 32.31100082397461 C 424.2553405761719 27.18483352661133 444.7080078125 22.60516738891602 465.2349853515625 18.69916725158691 C 485.9945068359375 14.74899959564209 507.3290100097656 11.39299964904785 528.64599609375 8.724333763122559 C 550.24267578125 6.020666599273682 572.34716796875 3.956833362579346 594.3453369140625 2.589999914169312 C 616.6668090820312 1.203166723251343 639.4290161132812 0.5 662 0.5 C 684.5709838867188 0.5 707.3331909179688 1.203166723251343 729.6546630859375 2.589999914169312 C 751.65283203125 3.956833362579346 773.75732421875 6.020666599273682 795.35400390625 8.724333763122559 C 816.6710205078125 11.39299964904785 838.0054931640625 14.74899959564209 858.7650146484375 18.69916725158691 C 879.2919921875 22.60516738891602 899.7446899414062 27.18483352661133 919.5549926757812 32.31100082397461 C 958.7588500976562 42.45550155639648 996.5704956054688 55.01133346557617 1031.939453125 69.62966918945312 C 1066.969482421875 84.10800170898438 1099.9091796875 100.7348327636719 1129.843872070312 119.0483322143555 C 1144.754272460938 128.1703338623047 1159.117309570312 137.8385009765625 1172.53369140625 147.7839965820312 C 1185.981689453125 157.753173828125 1198.790649414062 168.232666015625 1210.605224609375 178.9313354492188 C 1222.475708007812 189.6806640625 1233.619384765625 200.9024963378906 1243.726318359375 212.2850036621094 C 1253.904296875 223.7473297119141 1263.270874023438 235.6426696777344 1271.565551757812 247.6399993896484 C 1279.936279296875 259.7476806640625 1287.414306640625 272.2474975585938 1293.792114257812 284.7919921875 C 1300.240966796875 297.4768371582031 1305.719848632812 310.5125122070312 1310.076293945312 323.5369873046875 C 1314.489501953125 336.7308349609375 1317.858154296875 350.2344970703125 1320.088989257812 363.6730041503906 C 1322.352294921875 377.3081665039062 1323.5 391.2124938964844 1323.5 405 C 1323.5 418.7875061035156 1322.352294921875 432.6918334960938 1320.088989257812 446.3269958496094 C 1317.858154296875 459.7655029296875 1314.489501953125 473.2691650390625 1310.076293945312 486.4630126953125 C 1305.719848632812 499.4874877929688 1300.240966796875 512.523193359375 1293.792114257812 525.2080078125 C 1287.414306640625 537.7525024414062 1279.936279296875 550.2523193359375 1271.565551757812 562.3599853515625 C 1263.270874023438 574.3573608398438 1253.904296875 586.252685546875 1243.726318359375 597.7150268554688 C 1233.619384765625 609.0974731445312 1222.475708007812 620.3193359375 1210.605224609375 631.0686645507812 C 1198.790649414062 641.767333984375 1185.981689453125 652.246826171875 1172.53369140625 662.2160034179688 C 1159.117309570312 672.1614990234375 1144.754272460938 681.8296508789062 1129.843872070312 690.95166015625 C 1099.9091796875 709.26513671875 1066.969482421875 725.8920288085938 1031.939453125 740.370361328125 C 996.5704956054688 754.9886474609375 958.7588500976562 767.5444946289062 919.5549926757812 777.6890258789062 C 899.7446899414062 782.815185546875 879.2919921875 787.3948364257812 858.7650146484375 791.3008422851562 C 838.0054931640625 795.2509765625 816.6710205078125 798.6069946289062 795.35400390625 801.2756958007812 C 773.75732421875 803.9793090820312 751.65283203125 806.0431518554688 729.6546630859375 807.4099731445312 C 707.3331909179688 808.7968139648438 684.5709838867188 809.5 662 809.5 Z"/>
      <path class="cls-4" d="M 662 1 C 639.4393310546875 1 616.6875 1.70281982421875 594.3763427734375 3.0889892578125 C 572.3884887695312 4.45513916015625 550.2944946289062 6.51800537109375 528.7081909179688 9.2203369140625 C 507.4014892578125 11.8878173828125 486.0775146484375 15.2421875 465.3283081054688 19.1903076171875 C 444.8121948242188 23.0943603515625 424.3701782226562 27.6715087890625 404.5701904296875 32.79498291015625 C 365.388671875 42.93365478515625 327.5991821289062 55.482177734375 292.25146484375 70.09185791015625 C 257.2457275390625 84.5601806640625 224.3294677734375 101.1749877929688 194.4171142578125 119.474853515625 C 179.5191650390625 128.5891723632812 165.16845703125 138.2488403320312 151.76416015625 148.1856689453125 C 138.3292236328125 158.1451416015625 125.5328369140625 168.6141967773438 113.73046875 179.3018188476562 C 101.873291015625 190.0391845703125 90.74267578125 201.2479858398438 80.647705078125 212.6170043945312 C 70.4827880859375 224.0643310546875 61.1290283203125 235.9434814453125 52.8458251953125 247.92431640625 C 44.4876708984375 260.013671875 37.0211181640625 272.4940185546875 30.6536865234375 285.0184936523438 C 24.2158203125 297.6815185546875 18.7464599609375 310.6943359375 14.3978271484375 323.6954956054688 C 9.9931640625 336.864501953125 6.630859375 350.3423461914062 4.404296875 363.7548217773438 C 2.1453857421875 377.3630065917969 1 391.2398376464844 1 405 C 1 418.7601623535156 2.1453857421875 432.6369934082031 4.404296875 446.2451782226562 C 6.630859375 459.6576538085938 9.9931640625 473.135498046875 14.3978271484375 486.3045043945312 C 18.7464599609375 499.3056640625 24.2158203125 512.3184814453125 30.6536865234375 524.9815063476562 C 37.0211181640625 537.5059814453125 44.4876708984375 549.986328125 52.8458251953125 562.07568359375 C 61.1290283203125 574.0565185546875 70.4827880859375 585.9356689453125 80.647705078125 597.3829956054688 C 90.74267578125 608.7520141601562 101.873291015625 619.9608154296875 113.73046875 630.6981811523438 C 125.5328369140625 641.3858642578125 138.3292236328125 651.8548583984375 151.76416015625 661.8143310546875 C 165.16845703125 671.7511596679688 179.5191650390625 681.4108276367188 194.4171142578125 690.525146484375 C 224.3294677734375 708.8250122070312 257.2457275390625 725.4398193359375 292.25146484375 739.9081420898438 C 327.5991821289062 754.517822265625 365.388671875 767.0663452148438 404.5701904296875 777.2050170898438 C 424.3701782226562 782.3284912109375 444.8121948242188 786.9056396484375 465.3283081054688 790.8096923828125 C 486.0775146484375 794.7578125 507.4014892578125 798.1121826171875 528.7081909179688 800.7796630859375 C 550.2944946289062 803.4819946289062 572.3884887695312 805.5448608398438 594.3763427734375 806.9110107421875 C 616.6875 808.2971801757812 639.4393310546875 809 662 809 C 684.5606689453125 809 707.3125 808.2971801757812 729.6236572265625 806.9110107421875 C 751.6115112304688 805.5448608398438 773.705322265625 803.4819946289062 795.2918090820312 800.7796630859375 C 816.5983276367188 798.1121826171875 837.92236328125 794.7578125 858.6715087890625 790.8096923828125 C 879.1878662109375 786.9056396484375 899.6298217773438 782.3284912109375 919.4296875 777.2050170898438 C 958.611328125 767.0663452148438 996.40087890625 754.517822265625 1031.74853515625 739.9081420898438 C 1066.754150390625 725.4398193359375 1099.670532226562 708.8250122070312 1129.582885742188 690.525146484375 C 1144.480834960938 681.4108276367188 1158.831298828125 671.7511596679688 1172.23583984375 661.8143310546875 C 1185.670654296875 651.8548583984375 1198.467163085938 641.3858642578125 1210.26953125 630.6981811523438 C 1222.126708984375 619.9608154296875 1233.25732421875 608.7520141601562 1243.352294921875 597.3829956054688 C 1253.517211914062 585.9356689453125 1262.870971679688 574.0565185546875 1271.154174804688 562.07568359375 C 1279.512329101562 549.986328125 1286.978881835938 537.5059814453125 1293.346313476562 524.9815063476562 C 1299.7841796875 512.3184814453125 1305.253540039062 499.3056640625 1309.602172851562 486.3045043945312 C 1314.0068359375 473.135498046875 1317.369140625 459.6576538085938 1319.595703125 446.2451782226562 C 1321.854614257812 432.6369934082031 1323 418.7601623535156 1323 405 C 1323 391.2398376464844 1321.854614257812 377.3630065917969 1319.595703125 363.7548217773438 C 1317.369140625 350.3423461914062 1314.0068359375 336.864501953125 1309.602172851562 323.6954956054688 C 1305.253540039062 310.6943359375 1299.7841796875 297.6815185546875 1293.346313476562 285.0184936523438 C 1286.978881835938 272.4940185546875 1279.512329101562 260.013671875 1271.154174804688 247.92431640625 C 1262.870971679688 235.9434814453125 1253.517211914062 224.0643310546875 1243.352294921875 212.6170043945312 C 1233.25732421875 201.2479858398438 1222.126708984375 190.0391845703125 1210.26953125 179.3018188476562 C 1198.467163085938 168.6141967773438 1185.670654296875 158.1451416015625 1172.23583984375 148.1856689453125 C 1158.831298828125 138.2488403320312 1144.480834960938 128.5891723632812 1129.582885742188 119.474853515625 C 1099.670532226562 101.1749877929688 1066.754150390625 84.5601806640625 1031.74853515625 70.09185791015625 C 996.40087890625 55.482177734375 958.611328125 42.93365478515625 919.4296875 32.79498291015625 C 899.6298217773438 27.6715087890625 879.1878662109375 23.0943603515625 858.6715087890625 19.1903076171875 C 837.92236328125 15.2421875 816.5983276367188 11.8878173828125 795.2918090820312 9.2203369140625 C 773.705322265625 6.51800537109375 751.6115112304688 4.45513916015625 729.6236572265625 3.0889892578125 C 707.3125 1.70281982421875 684.5606689453125 1 662 1 M 662 0 C 1027.6123046875 0 1324 181.3246459960938 1324 405 C 1324 628.6753540039062 1027.6123046875 810 662 810 C 296.387451171875 810 0 628.6753540039062 0 405 C 0 181.3246459960938 296.387451171875 0 662 0 Z"/>
    </g>
    <g id="Ellipse_91" data-name="Ellipse 91" class="cls-2" transform="translate(-461 598)">
      <ellipse class="cls-3" cx="662" cy="405.5" rx="662" ry="405.5"/>
      <ellipse class="cls-5" cx="662" cy="405.5" rx="661.5" ry="405"/>
    </g>
  </g>
</svg>
