<svg xmlns="http://www.w3.org/2000/svg" xmlns:xlink="http://www.w3.org/1999/xlink" width="1062.318" height="478" viewBox="0 0 1062.318 478">
  <defs>
    <style>
      .cls-1, .cls-14, .cls-16, .cls-18, .cls-2, .cls-30, .cls-4, .cls-7, .cls-9 {
        isolation: isolate;
      }

      .cls-16, .cls-18, .cls-2, .cls-8, .cls-9 {
        fill: #848484;
      }

      .cls-2 {
        opacity: 0.28;
      }

      .cls-14, .cls-2, .cls-30, .cls-4, .cls-7, .cls-9 {
        mix-blend-mode: multiply;
      }

      .cls-3 {
        fill: #fee9b2;
      }

      .cls-4, .cls-6 {
        fill: #f09f54;
      }

      .cls-18, .cls-30, .cls-4, .cls-7 {
        opacity: 0.29;
      }

      .cls-5 {
        fill: #444e59;
      }

      .cls-7 {
        fill: #fde4da;
      }

      .cls-9 {
        opacity: 0.25;
      }

      .cls-10 {
        fill: #cedbe9;
      }

      .cls-11 {
        fill: #d0ddf0;
      }

      .cls-12 {
        fill: #e9fbff;
      }

      .cls-13 {
        fill: #49aa9c;
      }

      .cls-14, .cls-20 {
        fill: #71a850;
      }

      .cls-14 {
        opacity: 0.4;
      }

      .cls-15 {
        fill: #bfcfe2;
      }

      .cls-16 {
        opacity: 0.48;
      }

      .cls-16, .cls-18 {
        mix-blend-mode: screen;
      }

      .cls-17 {
        fill: #c9c9c9;
      }

      .cls-19 {
        opacity: 0.3;
      }

      .cls-21 {
        fill: #5f8c42;
      }

      .cls-21, .cls-22, .cls-25, .cls-27 {
        opacity: 0.52;
      }

      .cls-22 {
        fill: #d38444;
      }

      .cls-23 {
        fill: none;
      }

      .cls-24 {
        fill: #2fa9ed;
      }

      .cls-25 {
        fill: #288fbc;
      }

      .cls-26 {
        fill: #e7534e;
      }

      .cls-27 {
        fill: #bf4040;
      }

      .cls-28 {
        fill: #fff;
      }

      .cls-29 {
        fill: #fde1aa;
      }

      .cls-31 {
        fill: #bcbcbc;
      }

      .cls-32 {
        fill: #64bdff;
      }

      .cls-33 {
        fill: #ff5f5f;
      }

      .cls-34 {
        fill: #ffbe78;
      }

      .cls-35 {
        fill: #c383f2;
      }

      .cls-36 {
        fill: #6dbf7b;
      }

      .cls-37 {
        fill: #9483c4;
      }

      .cls-38 {
        opacity: 0.56;
      }

      .cls-39 {
        filter: url(#Path_2539);
      }
    </style>
    <filter id="Path_2539" x="226.907" y="187.999" width="185.82" height="172.441" filterUnits="userSpaceOnUse">
      <feOffset dy="3" input="SourceAlpha"/>
      <feGaussianBlur stdDeviation="3" result="blur"/>
      <feFlood flood-opacity="0.161"/>
      <feComposite operator="in" in2="blur"/>
      <feComposite in="SourceGraphic"/>
    </filter>
  </defs>
  <g id="gummy-app-development" class="cls-1" transform="translate(-153.152 -354.168)">
    <g id="Layer_1" data-name="Layer 1" transform="translate(153.152 354.168)">
      <rect id="Rectangle_798" data-name="Rectangle 798" class="cls-2" width="1062.318" height="27.565" rx="9" transform="translate(0 450.435)"/>
      <path id="Path_2422" data-name="Path 2422" class="cls-3" d="M854.49,616.235A109.418,109.418,0,0,0,755.369,507.09V494.209H721.812V740.3h33.557v-14.92a109.416,109.416,0,0,0,99.12-109.148Zm-99.121,73.772V542.466a74.517,74.517,0,0,1,0,147.54Z" transform="translate(149.027 -279.752)"/>
      <path id="Path_2423" data-name="Path 2423" class="cls-4" d="M755.369,507.089v-12.88H721.812V740.3h33.557v-14.92a109.647,109.647,0,0,0,0-218.29Zm0,207.021v12.767h-31.32V505.394h31.32v12.966c49.219,4.758,88.885,46.753,88.885,97.874s-39.666,93.121-88.885,97.868Z" transform="translate(149.027 -279.752)"/>
      <path id="Path_2425" data-name="Path 2425" class="cls-5" d="M736.032,641.931H722.609a2.3,2.3,0,1,1,0-4.594h13.423a2.3,2.3,0,1,1,0,4.594Z" transform="translate(148.23 -203.695)"/>
      <path id="Path_2426" data-name="Path 2426" class="cls-5" d="M736.032,625.862H722.609a2.3,2.3,0,1,1,0-4.594h13.423a2.3,2.3,0,1,1,0,4.594Z" transform="translate(148.23 -212.234)"/>
      <path id="Path_2427" data-name="Path 2427" class="cls-5" d="M736.032,609.794H722.609a2.3,2.3,0,1,1,0-4.594h13.423a2.3,2.3,0,1,1,0,4.594Z" transform="translate(148.23 -220.772)"/>
      <path id="Path_2428" data-name="Path 2428" class="cls-5" d="M736.032,593.722H722.609a2.3,2.3,0,1,1,0-4.594h13.423a2.3,2.3,0,0,1,0,4.594Z" transform="translate(148.23 -229.313)"/>
      <path id="Path_2429" data-name="Path 2429" class="cls-5" d="M736.032,577.652H722.609a2.3,2.3,0,1,1,0-4.594h13.423a2.3,2.3,0,1,1,0,4.594Z" transform="translate(148.23 -237.852)"/>
      <path id="Path_2430" data-name="Path 2430" class="cls-5" d="M736.032,561.582H722.609a2.3,2.3,0,1,1,0-4.594h13.423a2.3,2.3,0,1,1,0,4.594Z" transform="translate(148.23 -246.392)"/>
      <path id="Path_2431" data-name="Path 2431" class="cls-5" d="M736.032,545.512H722.609a2.3,2.3,0,0,1,0-4.594h13.423a2.3,2.3,0,0,1,0,4.594Z" transform="translate(148.23 -254.931)"/>
      <path id="Path_2432" data-name="Path 2432" class="cls-5" d="M736.032,529.443H722.609a2.3,2.3,0,1,1,0-4.594h13.423a2.3,2.3,0,1,1,0,4.594Z" transform="translate(148.23 -263.47)"/>
      <path id="Path_2433" data-name="Path 2433" class="cls-5" d="M736.032,513.372H722.609a2.3,2.3,0,1,1,0-4.594h13.423a2.3,2.3,0,1,1,0,4.594Z" transform="translate(148.23 -272.01)"/>
      <rect id="Rectangle_799" data-name="Rectangle 799" class="cls-6" width="50.661" height="370.049" transform="translate(796.483 89.928)"/>
      <rect id="Rectangle_800" data-name="Rectangle 800" class="cls-3" width="50.661" height="370.049" transform="translate(796.483 89.928)"/>
      <rect id="Rectangle_801" data-name="Rectangle 801" class="cls-7" width="22.027" height="370.049" transform="translate(825.118 89.928)"/>
      <path id="Path_2435" data-name="Path 2435" class="cls-5" d="M691.677,633.176H674.055a2.3,2.3,0,0,1,0-4.594h17.622a2.3,2.3,0,0,1,0,4.594Z" transform="translate(122.429 -208.347)"/>
      <path id="Path_2436" data-name="Path 2436" class="cls-5" d="M685.067,644.683H674.055a2.3,2.3,0,0,1,0-4.594h11.012a2.3,2.3,0,0,1,0,4.594Z" transform="translate(122.429 -202.233)"/>
      <path id="Path_2437" data-name="Path 2437" class="cls-5" d="M691.677,610.162H674.055a2.3,2.3,0,0,1,0-4.594h17.622a2.3,2.3,0,1,1,0,4.594Z" transform="translate(122.429 -220.577)"/>
      <path id="Path_2438" data-name="Path 2438" class="cls-5" d="M685.067,621.669H674.055a2.3,2.3,0,1,1,0-4.594h11.012a2.3,2.3,0,0,1,0,4.594Z" transform="translate(122.429 -214.462)"/>
      <path id="Path_2439" data-name="Path 2439" class="cls-5" d="M691.677,587.149H674.055a2.3,2.3,0,0,1,0-4.594h17.622a2.3,2.3,0,1,1,0,4.594Z" transform="translate(122.429 -232.806)"/>
      <path id="Path_2440" data-name="Path 2440" class="cls-5" d="M685.067,598.656H674.055a2.3,2.3,0,0,1,0-4.594h11.012a2.3,2.3,0,0,1,0,4.594Z" transform="translate(122.429 -226.691)"/>
      <path id="Path_2441" data-name="Path 2441" class="cls-5" d="M691.677,564.135H674.055a2.3,2.3,0,0,1,0-4.594h17.622a2.3,2.3,0,1,1,0,4.594Z" transform="translate(122.429 -245.035)"/>
      <path id="Path_2442" data-name="Path 2442" class="cls-5" d="M685.067,575.642H674.055a2.3,2.3,0,0,1,0-4.594h11.012a2.3,2.3,0,0,1,0,4.594Z" transform="translate(122.429 -238.92)"/>
      <path id="Path_2443" data-name="Path 2443" class="cls-5" d="M691.677,541.122H674.055a2.3,2.3,0,1,1,0-4.594h17.622a2.3,2.3,0,0,1,0,4.594Z" transform="translate(122.429 -257.264)"/>
      <path id="Path_2444" data-name="Path 2444" class="cls-5" d="M685.067,552.628H674.055a2.3,2.3,0,0,1,0-4.594h11.012a2.3,2.3,0,0,1,0,4.594Z" transform="translate(122.429 -251.15)"/>
      <path id="Path_2445" data-name="Path 2445" class="cls-5" d="M691.677,518.109H674.055a2.3,2.3,0,0,1,0-4.594h17.622a2.3,2.3,0,1,1,0,4.594Z" transform="translate(122.429 -269.493)"/>
      <path id="Path_2446" data-name="Path 2446" class="cls-5" d="M685.067,529.615H674.055a2.3,2.3,0,0,1,0-4.594h11.012a2.3,2.3,0,0,1,0,4.594Z" transform="translate(122.429 -263.379)"/>
      <path id="Path_2447" data-name="Path 2447" class="cls-5" d="M691.677,495.094H674.055a2.3,2.3,0,0,1,0-4.594h17.622a2.3,2.3,0,1,1,0,4.594Z" transform="translate(122.429 -281.723)"/>
      <path id="Path_2448" data-name="Path 2448" class="cls-5" d="M685.067,506.6H674.055a2.3,2.3,0,0,1,0-4.594h11.012a2.3,2.3,0,0,1,0,4.594Z" transform="translate(122.429 -275.608)"/>
      <path id="Path_2449" data-name="Path 2449" class="cls-5" d="M691.677,472.081H674.055a2.3,2.3,0,0,1,0-4.594h17.622a2.3,2.3,0,1,1,0,4.594Z" transform="translate(122.429 -293.952)"/>
      <path id="Path_2450" data-name="Path 2450" class="cls-5" d="M685.067,483.588H674.055a2.3,2.3,0,0,1,0-4.594h11.012a2.3,2.3,0,0,1,0,4.594Z" transform="translate(122.429 -287.837)"/>
      <path id="Path_2451" data-name="Path 2451" class="cls-5" d="M691.677,449.067H674.055a2.3,2.3,0,0,1,0-4.594h17.622a2.3,2.3,0,0,1,0,4.594Z" transform="translate(122.429 -306.181)"/>
      <path id="Path_2452" data-name="Path 2452" class="cls-5" d="M685.067,460.574H674.055a2.3,2.3,0,0,1,0-4.594h11.012a2.3,2.3,0,0,1,0,4.594Z" transform="translate(122.429 -300.066)"/>
      <path id="Path_2453" data-name="Path 2453" class="cls-5" d="M691.677,426.054H674.055a2.3,2.3,0,0,1,0-4.594h17.622a2.3,2.3,0,1,1,0,4.594Z" transform="translate(122.429 -318.41)"/>
      <path id="Path_2454" data-name="Path 2454" class="cls-5" d="M685.067,437.56H674.055a2.3,2.3,0,0,1,0-4.594h11.012a2.3,2.3,0,0,1,0,4.594Z" transform="translate(122.429 -312.296)"/>
      <rect id="Rectangle_802" data-name="Rectangle 802" class="cls-8" width="19.819" height="52.251" transform="translate(702.843 179.447)"/>
      <rect id="Rectangle_803" data-name="Rectangle 803" class="cls-9" width="7.32" height="52.251" transform="translate(702.843 179.447)"/>
      <rect id="Rectangle_804" data-name="Rectangle 804" class="cls-10" width="9.009" height="25.225" transform="translate(708.249 231.698)"/>
      <path id="Path_2457" data-name="Path 2457" class="cls-11" d="M624.575,536.732,578.643,716.953l69.795-177.862Z" transform="translate(72.949 -257.155)"/>
      <path id="Path_2459" data-name="Path 2459" class="cls-12" d="M636.914,536.732l45.932,180.222L641.372,611.264,613.05,539.092Z" transform="translate(91.233 -257.155)"/>
      <circle id="Ellipse_330" data-name="Ellipse 330" class="cls-13" cx="30.629" cy="30.629" r="30.629" transform="translate(682.214 253.592)"/>
      <path id="Path_2461" data-name="Path 2461" class="cls-14" d="M607.257,550.393a30.611,30.611,0,0,1,26.358-30.3,30.628,30.628,0,1,0,0,60.594A30.611,30.611,0,0,1,607.257,550.393Z" transform="translate(83.5 -266.172)"/>
      <path id="Path_2463" data-name="Path 2463" class="cls-5" d="M623.3,557.869a13.441,13.441,0,1,1,13.439-13.44A13.442,13.442,0,0,1,623.3,557.869Zm0-20.755a7.315,7.315,0,1,0,7.314,7.315,7.316,7.316,0,0,0-7.314-7.315Z" transform="translate(89.539 -260.208)"/>
      <rect id="Rectangle_805" data-name="Rectangle 805" class="cls-15" width="245.022" height="459.417" rx="14" transform="translate(378.657)"/>
      <path id="Path_2464" data-name="Path 2464" class="cls-2" d="M550.91,354.168H537.959a21.44,21.44,0,0,1,21.439,21.44V792.145a21.439,21.439,0,0,1-21.439,21.439H550.91a21.439,21.439,0,0,0,21.439-21.439V375.607a21.439,21.439,0,0,0-21.439-21.439Z" transform="translate(51.33 -354.168)"/>
      <path id="Path_2465" data-name="Path 2465" class="cls-16" d="M413.177,792.145V375.607a21.44,21.44,0,0,1,21.44-21.439H421.855a21.439,21.439,0,0,0-21.439,21.44V792.145a21.439,21.439,0,0,0,21.439,21.44h12.761a21.439,21.439,0,0,1-21.439-21.439Z" transform="translate(-21.759 -354.168)"/>
      <rect id="Rectangle_806" data-name="Rectangle 806" class="cls-12" width="343.031" height="245.022" transform="translate(623.678 57.482) rotate(90)"/>
      <path id="Path_2467" data-name="Path 2467" class="cls-17" d="M553.641,408.781h19.113V493.13H553.641a18.819,18.819,0,0,1-18.819-18.819V427.6a18.82,18.82,0,0,1,18.822-18.822Z" transform="translate(49.663 -325.147)"/>
      <path id="Path_2468" data-name="Path 2468" class="cls-17" d="M400.416,490.255h14.012a19.1,19.1,0,0,1,19.1,19.1V620.118a19.1,19.1,0,0,1-19.1,19.1H400.416Z" transform="translate(-21.759 -281.853)"/>
      <circle id="Ellipse_332" data-name="Ellipse 332" class="cls-18" cx="16.773" cy="16.773" r="16.773" transform="translate(484.395 409.599)"/>
      <circle id="Ellipse_333" data-name="Ellipse 333" class="cls-5" cx="12.867" cy="12.867" r="12.867" transform="translate(488.302 413.506)"/>
      <g id="Group_1050" data-name="Group 1050" class="cls-19" transform="translate(406.89 88.396)">
        <path id="Path_2472" data-name="Path 2472" class="cls-5" d="M457.238,607.959h-6.343a1.531,1.531,0,0,1,0-3.063h6.248a1.573,1.573,0,0,1,1.579,1.531,1.492,1.492,0,0,1-1.484,1.531Zm-12.59,0H438.4a1.531,1.531,0,1,1,0-3.063h6.251a1.531,1.531,0,1,1,0,3.063Zm-12.493-.009h-.06a13.784,13.784,0,0,1-6.654-2.017,1.531,1.531,0,0,1,1.6-2.6,10.719,10.719,0,0,0,5.17,1.568,1.532,1.532,0,0,1-.058,3.063Zm31.05-1.593a1.531,1.531,0,0,1-.766-2.861,10.84,10.84,0,0,0,3.876-3.776,1.531,1.531,0,1,1,2.62,1.585,13.891,13.891,0,0,1-4.976,4.85,1.522,1.522,0,0,1-.755.2Zm-41.248-4.651a1.531,1.531,0,0,1-1.335-.781,13.765,13.765,0,0,1-1.764-6.723,1.531,1.531,0,0,1,1.531-1.531h0a1.531,1.531,0,0,1,1.531,1.531,10.7,10.7,0,0,0,1.371,5.227,1.522,1.522,0,0,1-1.334,2.277Zm47.43-5.585h-.051a1.531,1.531,0,0,1-1.481-1.579v-6.2a1.531,1.531,0,0,1,3.063,0v6.3a1.531,1.531,0,0,1-1.531,1.481Zm-49-6.637a1.531,1.531,0,0,1-1.531-1.531v-6.248a1.531,1.531,0,1,1,3.063,0v6.248a1.531,1.531,0,0,1-1.525,1.531Zm49-5.858a1.531,1.531,0,0,1-1.531-1.531v-6.247a1.531,1.531,0,0,1,3.063,0v6.242a1.531,1.531,0,0,1-1.525,1.531Zm-49-6.637a1.531,1.531,0,0,1-1.531-1.531v-5.784c0-.176,0-.351.011-.524a1.533,1.533,0,0,1,3.063.119v6.188a1.531,1.531,0,0,1-1.536,1.531Zm49-5.856a1.531,1.531,0,0,1-1.531-1.522,10.691,10.691,0,0,0-1.391-5.222,1.532,1.532,0,1,1,2.665-1.513,13.782,13.782,0,0,1,1.789,6.717,1.532,1.532,0,0,1-1.522,1.541Zm-47.217-6.3a1.514,1.514,0,0,1-.8-.225,1.531,1.531,0,0,1-.51-2.106,13.876,13.876,0,0,1,5-4.828,1.531,1.531,0,1,1,1.508,2.665,10.8,10.8,0,0,0-3.89,3.761,1.531,1.531,0,0,1-1.3.733Zm41.323-4.1a1.532,1.532,0,0,1-.795-.224,10.709,10.709,0,0,0-5.178-1.547,1.532,1.532,0,0,1,.109-3.063,13.77,13.77,0,0,1,6.66,1.991,1.531,1.531,0,0,1-.8,2.841Zm-12.165-1.776H445.08a1.531,1.531,0,1,1,0-3.063h6.248a1.531,1.531,0,0,1,0,3.063Zm-12.495,0h-6.2a1.553,1.553,0,0,1-1.556-1.531,1.51,1.51,0,0,1,1.508-1.531h6.247a1.531,1.531,0,0,1,0,3.063Z" transform="translate(-418.852 -335.37)"/>
        <path id="Path_2473" data-name="Path 2473" class="cls-5" d="M539.456,607.959a1.531,1.531,0,0,1,0-3.063H545.7a1.573,1.573,0,0,1,1.58,1.531,1.492,1.492,0,0,1-1.484,1.531v-1.531l-.034,1.531Zm-6.248,0h-6.246a1.531,1.531,0,0,1,0-3.063h6.246a1.531,1.531,0,1,1,0,3.063Zm-12.493-.009h-.061A13.767,13.767,0,0,1,514,605.933a1.531,1.531,0,1,1,1.6-2.6,10.72,10.72,0,0,0,5.172,1.568,1.532,1.532,0,0,1-.058,3.063Zm31.05-1.593A1.531,1.531,0,0,1,551,603.5a10.8,10.8,0,0,0,3.874-3.778,1.532,1.532,0,0,1,2.62,1.588,13.9,13.9,0,0,1-4.975,4.849,1.51,1.51,0,0,1-.753.2Zm-41.248-4.649a1.531,1.531,0,0,1-1.335-.781,13.765,13.765,0,0,1-1.763-6.724,1.531,1.531,0,0,1,1.531-1.531h0a1.531,1.531,0,0,1,1.531,1.531,10.708,10.708,0,0,0,1.369,5.225,1.528,1.528,0,0,1-1.334,2.28Zm47.43-5.587H557.9a1.531,1.531,0,0,1-1.481-1.579v-6.2a1.531,1.531,0,0,1,3.063,0l-.009,6.3A1.532,1.532,0,0,1,557.948,596.122Zm-49-6.637a1.531,1.531,0,0,1-1.531-1.531v-6.248a1.531,1.531,0,0,1,3.063,0v6.248a1.531,1.531,0,0,1-1.525,1.531Zm49-5.858a1.531,1.531,0,0,1-1.531-1.531v-6.246a1.531,1.531,0,0,1,3.063,0v6.242a1.531,1.531,0,0,1-1.525,1.531Zm-49-6.637a1.531,1.531,0,0,1-1.531-1.531v-5.784c0-.175,0-.348.011-.522a1.533,1.533,0,0,1,3.063.12v6.187a1.531,1.531,0,0,1-1.536,1.531Zm49-5.858a1.532,1.532,0,0,1-1.531-1.522,10.718,10.718,0,0,0-1.391-5.222,1.531,1.531,0,0,1,2.662-1.513,13.784,13.784,0,0,1,1.792,6.717,1.531,1.531,0,0,1-1.522,1.541Zm-47.22-6.3a1.513,1.513,0,0,1-.8-.225,1.531,1.531,0,0,1-.51-2.106,13.863,13.863,0,0,1,5-4.828,1.531,1.531,0,1,1,1.508,2.665,10.792,10.792,0,0,0-3.888,3.761,1.531,1.531,0,0,1-1.3.734Zm41.323-4.1a1.514,1.514,0,0,1-.792-.224,10.738,10.738,0,0,0-5.179-1.545,1.532,1.532,0,0,1,.107-3.063,13.784,13.784,0,0,1,6.66,1.991,1.531,1.531,0,0,1-.8,2.841Zm-12.165-1.775h-6.247a1.531,1.531,0,0,1,0-3.063h6.247a1.531,1.531,0,0,1,0,3.063Zm-12.493,0h-6.2a1.551,1.551,0,0,1-1.556-1.531,1.51,1.51,0,0,1,1.507-1.531v0h6.244a1.531,1.531,0,0,1,0,3.063Z" transform="translate(-371.792 -335.37)"/>
        <path id="Path_2474" data-name="Path 2474" class="cls-5" d="M495.455,607.959a1.531,1.531,0,1,1,0-3.063H501.7a1.571,1.571,0,0,1,1.579,1.531,1.491,1.491,0,0,1-1.482,1.531v-1.531l-.034,1.531Zm-6.247,0H482.96a1.531,1.531,0,0,1,0-3.063h6.248a1.531,1.531,0,0,1,0,3.063Zm-12.493-.009h-.06A13.767,13.767,0,0,1,470,605.933a1.531,1.531,0,0,1,1.6-2.6,10.706,10.706,0,0,0,5.17,1.568,1.532,1.532,0,0,1-.058,3.063Zm31.05-1.593A1.531,1.531,0,0,1,507,603.5a10.822,10.822,0,0,0,3.874-3.776,1.531,1.531,0,1,1,2.62,1.585,13.879,13.879,0,0,1-4.976,4.85,1.519,1.519,0,0,1-.753.2Zm-41.248-4.649a1.531,1.531,0,0,1-1.337-.781,13.783,13.783,0,0,1-1.763-6.723,1.531,1.531,0,0,1,1.531-1.531h0a1.531,1.531,0,0,1,1.531,1.531,10.706,10.706,0,0,0,1.371,5.227,1.531,1.531,0,0,1-1.334,2.283Zm47.43-5.587H513.9a1.531,1.531,0,0,1-1.479-1.579v-6.2a1.531,1.531,0,0,1,3.063,0v6.3A1.531,1.531,0,0,1,513.948,596.122Zm-49-6.637a1.531,1.531,0,0,1-1.531-1.531v-6.248a1.531,1.531,0,0,1,3.063,0v6.248a1.531,1.531,0,0,1-1.525,1.531Zm49-5.858a1.531,1.531,0,0,1-1.531-1.531v-6.246a1.531,1.531,0,0,1,3.063,0v6.242a1.531,1.531,0,0,1-1.525,1.531Zm-49-6.637a1.531,1.531,0,0,1-1.531-1.531v-5.784c0-.175,0-.348.009-.522a1.5,1.5,0,0,1,1.59-1.47,1.531,1.531,0,0,1,1.47,1.59v6.187a1.531,1.531,0,0,1-1.531,1.531Zm49-5.858a1.531,1.531,0,0,1-1.531-1.522,10.708,10.708,0,0,0-1.392-5.222,1.532,1.532,0,0,1,2.665-1.513,13.809,13.809,0,0,1,1.79,6.717,1.531,1.531,0,0,1-1.531,1.541Zm-47.217-6.3a1.531,1.531,0,0,1-1.306-2.331,13.852,13.852,0,0,1,5-4.829,1.531,1.531,0,1,1,1.508,2.665,10.8,10.8,0,0,0-3.89,3.761,1.531,1.531,0,0,1-1.3.734Zm41.321-4.1a1.515,1.515,0,0,1-.793-.224,10.734,10.734,0,0,0-5.178-1.545,1.532,1.532,0,0,1,.107-3.063,13.8,13.8,0,0,1,6.66,1.991,1.531,1.531,0,0,1-.8,2.841Zm-12.165-1.775H489.64a1.531,1.531,0,0,1,0-3.063h6.247a1.531,1.531,0,0,1,0,3.063Zm-12.495,0h-6.2a1.553,1.553,0,0,1-1.557-1.531,1.511,1.511,0,0,1,1.508-1.531h6.247a1.531,1.531,0,1,1,0,3.063Z" transform="translate(-395.173 -335.37)"/>
        <path id="Path_2475" data-name="Path 2475" class="cls-5" d="M457.238,559.959h-6.343a1.531,1.531,0,0,1,0-3.063h6.248a1.573,1.573,0,0,1,1.579,1.531,1.492,1.492,0,0,1-1.484,1.531Zm-12.59,0H438.4a1.531,1.531,0,0,1,0-3.063h6.251a1.531,1.531,0,0,1,0,3.063Zm-12.493-.009h-.06a13.783,13.783,0,0,1-6.654-2.017,1.531,1.531,0,0,1,1.6-2.6,10.719,10.719,0,0,0,5.17,1.568,1.532,1.532,0,0,1-.058,3.063Zm31.05-1.593a1.531,1.531,0,0,1-.766-2.861,10.84,10.84,0,0,0,3.876-3.777,1.531,1.531,0,1,1,2.62,1.585,13.89,13.89,0,0,1-4.976,4.85A1.522,1.522,0,0,1,463.206,558.357Zm-41.248-4.651a1.531,1.531,0,0,1-1.335-.781,13.763,13.763,0,0,1-1.764-6.723,1.531,1.531,0,0,1,1.531-1.531h0a1.531,1.531,0,0,1,1.531,1.531,10.7,10.7,0,0,0,1.371,5.227,1.523,1.523,0,0,1-1.334,2.277Zm47.43-5.585h-.051a1.531,1.531,0,0,1-1.481-1.579v-6.2a1.531,1.531,0,0,1,3.063,0v6.3a1.531,1.531,0,0,1-1.531,1.481Zm-49-6.637a1.531,1.531,0,0,1-1.531-1.531v-6.248a1.531,1.531,0,0,1,3.063,0v6.248a1.531,1.531,0,0,1-1.525,1.531Zm49-5.858a1.531,1.531,0,0,1-1.531-1.531v-6.247a1.531,1.531,0,0,1,3.063,0v6.242a1.531,1.531,0,0,1-1.525,1.531Zm-49-6.637a1.531,1.531,0,0,1-1.531-1.531v-5.784c0-.176,0-.351.011-.524a1.533,1.533,0,1,1,3.063.119v6.188a1.531,1.531,0,0,1-1.536,1.531Zm49-5.856a1.531,1.531,0,0,1-1.531-1.522,10.691,10.691,0,0,0-1.391-5.222,1.532,1.532,0,0,1,2.665-1.513,13.782,13.782,0,0,1,1.789,6.717,1.531,1.531,0,0,1-1.522,1.541Zm-47.217-6.3a1.516,1.516,0,0,1-.8-.225,1.531,1.531,0,0,1-.51-2.106,13.877,13.877,0,0,1,5-4.828,1.531,1.531,0,1,1,1.508,2.665,10.8,10.8,0,0,0-3.89,3.761,1.531,1.531,0,0,1-1.3.733Zm41.323-4.1a1.531,1.531,0,0,1-.795-.224,10.709,10.709,0,0,0-5.178-1.547,1.532,1.532,0,0,1,.109-3.063,13.771,13.771,0,0,1,6.66,1.991,1.531,1.531,0,0,1-.8,2.841Zm-12.165-1.776H445.08a1.531,1.531,0,1,1,0-3.063h6.248a1.531,1.531,0,0,1,0,3.063Zm-12.495,0h-6.2a1.553,1.553,0,0,1-1.556-1.531,1.51,1.51,0,0,1,1.508-1.531h6.247a1.531,1.531,0,1,1,0,3.063Z" transform="translate(-418.852 -360.877)"/>
        <path id="Path_2476" data-name="Path 2476" class="cls-5" d="M539.456,559.959a1.531,1.531,0,0,1,0-3.063H545.7a1.573,1.573,0,0,1,1.58,1.531,1.492,1.492,0,0,1-1.484,1.531v-1.531l-.034,1.531Zm-6.248,0h-6.246a1.531,1.531,0,0,1,0-3.063h6.246a1.531,1.531,0,1,1,0,3.063Zm-12.493-.009h-.061A13.767,13.767,0,0,1,514,557.933a1.531,1.531,0,1,1,1.6-2.6,10.721,10.721,0,0,0,5.172,1.568,1.532,1.532,0,0,1-.058,3.063Zm31.05-1.593A1.531,1.531,0,0,1,551,555.5a10.8,10.8,0,0,0,3.874-3.778,1.532,1.532,0,1,1,2.62,1.588,13.9,13.9,0,0,1-4.975,4.848,1.51,1.51,0,0,1-.753.2Zm-41.248-4.649a1.531,1.531,0,0,1-1.335-.781,13.765,13.765,0,0,1-1.763-6.724,1.531,1.531,0,0,1,1.531-1.531h0a1.531,1.531,0,0,1,1.531,1.531,10.708,10.708,0,0,0,1.369,5.225,1.527,1.527,0,0,1-1.334,2.28Zm47.43-5.587H557.9a1.531,1.531,0,0,1-1.481-1.579v-6.2a1.531,1.531,0,0,1,3.063,0l-.009,6.3A1.531,1.531,0,0,1,557.948,548.122Zm-49-6.637a1.531,1.531,0,0,1-1.531-1.531v-6.248a1.531,1.531,0,0,1,3.063,0v6.248a1.531,1.531,0,0,1-1.525,1.531Zm49-5.858a1.531,1.531,0,0,1-1.531-1.531v-6.247a1.531,1.531,0,0,1,3.063,0v6.242a1.531,1.531,0,0,1-1.525,1.531Zm-49-6.637a1.531,1.531,0,0,1-1.531-1.531v-5.784c0-.175,0-.348.011-.522a1.533,1.533,0,1,1,3.063.119v6.187a1.531,1.531,0,0,1-1.536,1.531Zm49-5.858a1.532,1.532,0,0,1-1.531-1.522,10.718,10.718,0,0,0-1.391-5.222,1.531,1.531,0,0,1,2.662-1.513,13.783,13.783,0,0,1,1.792,6.717,1.531,1.531,0,0,1-1.522,1.541Zm-47.22-6.3a1.512,1.512,0,0,1-.8-.225,1.531,1.531,0,0,1-.51-2.106,13.865,13.865,0,0,1,5-4.828,1.531,1.531,0,1,1,1.508,2.665,10.792,10.792,0,0,0-3.888,3.761,1.531,1.531,0,0,1-1.3.734Zm41.323-4.1a1.512,1.512,0,0,1-.792-.223,10.739,10.739,0,0,0-5.179-1.545,1.532,1.532,0,0,1,.107-3.063,13.78,13.78,0,0,1,6.66,1.991,1.531,1.531,0,0,1-.8,2.841Zm-12.165-1.775h-6.247a1.531,1.531,0,0,1,0-3.063h6.247a1.531,1.531,0,0,1,0,3.063Zm-12.493,0h-6.2a1.551,1.551,0,0,1-1.556-1.531,1.51,1.51,0,0,1,1.507-1.531v0h6.244a1.531,1.531,0,0,1,0,3.063Z" transform="translate(-371.792 -360.877)"/>
        <path id="Path_2477" data-name="Path 2477" class="cls-5" d="M495.455,559.959a1.531,1.531,0,1,1,0-3.063H501.7a1.571,1.571,0,0,1,1.579,1.531,1.492,1.492,0,0,1-1.482,1.531v-1.531l-.034,1.531Zm-6.247,0H482.96a1.531,1.531,0,0,1,0-3.063h6.248a1.531,1.531,0,0,1,0,3.063Zm-12.493-.009h-.06A13.769,13.769,0,0,1,470,557.933a1.531,1.531,0,0,1,1.6-2.6,10.707,10.707,0,0,0,5.17,1.568,1.532,1.532,0,0,1-.058,3.063Zm31.05-1.593A1.531,1.531,0,0,1,507,555.5a10.822,10.822,0,0,0,3.874-3.776,1.531,1.531,0,1,1,2.62,1.585,13.878,13.878,0,0,1-4.976,4.85A1.516,1.516,0,0,1,507.766,558.358Zm-41.248-4.649a1.531,1.531,0,0,1-1.337-.781,13.782,13.782,0,0,1-1.763-6.723,1.531,1.531,0,0,1,1.531-1.531h0a1.531,1.531,0,0,1,1.531,1.531,10.706,10.706,0,0,0,1.371,5.227,1.531,1.531,0,0,1-1.334,2.283Zm47.43-5.587H513.9a1.531,1.531,0,0,1-1.479-1.579v-6.2a1.531,1.531,0,0,1,3.063,0v6.3A1.531,1.531,0,0,1,513.948,548.122Zm-49-6.637a1.531,1.531,0,0,1-1.531-1.531v-6.248a1.531,1.531,0,0,1,3.063,0v6.248a1.531,1.531,0,0,1-1.525,1.531Zm49-5.858a1.531,1.531,0,0,1-1.531-1.531v-6.247a1.531,1.531,0,0,1,3.063,0v6.242a1.531,1.531,0,0,1-1.525,1.531Zm-49-6.637a1.531,1.531,0,0,1-1.531-1.531v-5.784c0-.175,0-.348.009-.522a1.5,1.5,0,0,1,1.59-1.47,1.531,1.531,0,0,1,1.47,1.59v6.187a1.531,1.531,0,0,1-1.531,1.531Zm49-5.858a1.531,1.531,0,0,1-1.531-1.522,10.708,10.708,0,0,0-1.392-5.222,1.532,1.532,0,0,1,2.665-1.513,13.808,13.808,0,0,1,1.79,6.717,1.531,1.531,0,0,1-1.531,1.541Zm-47.217-6.3a1.531,1.531,0,0,1-1.306-2.331,13.852,13.852,0,0,1,5-4.828,1.531,1.531,0,1,1,1.508,2.665,10.8,10.8,0,0,0-3.89,3.761,1.531,1.531,0,0,1-1.3.734Zm41.321-4.1a1.516,1.516,0,0,1-.793-.224,10.734,10.734,0,0,0-5.178-1.545,1.532,1.532,0,1,1,.107-3.063,13.8,13.8,0,0,1,6.66,1.991,1.531,1.531,0,0,1-.8,2.841Zm-12.165-1.775H489.64a1.531,1.531,0,0,1,0-3.063h6.247a1.531,1.531,0,0,1,0,3.063Zm-12.495,0h-6.2a1.553,1.553,0,0,1-1.557-1.531,1.511,1.511,0,0,1,1.508-1.531h6.247a1.531,1.531,0,1,1,0,3.063Z" transform="translate(-395.173 -360.877)"/>
        <path id="Path_2478" data-name="Path 2478" class="cls-5" d="M457.239,511.958h-6.345a1.531,1.531,0,1,1,0-3.063h6.248a1.573,1.573,0,0,1,1.579,1.531,1.491,1.491,0,0,1-1.482,1.531Zm-12.591,0H438.4a1.531,1.531,0,0,1,0-3.063h6.251a1.531,1.531,0,0,1,0,3.063Zm-12.493-.009h-.06a13.773,13.773,0,0,1-6.652-2.017,1.531,1.531,0,1,1,1.6-2.6,10.719,10.719,0,0,0,5.172,1.568,1.532,1.532,0,0,1-.06,3.063Zm31.05-1.593a1.531,1.531,0,0,1-.766-2.861,10.814,10.814,0,0,0,3.876-3.776,1.532,1.532,0,1,1,2.62,1.586,13.859,13.859,0,0,1-4.977,4.85,1.532,1.532,0,0,1-.754.2Zm-41.248-4.649a1.531,1.531,0,0,1-1.337-.781,13.8,13.8,0,0,1-1.763-6.723,1.531,1.531,0,0,1,1.531-1.531h0a1.531,1.531,0,0,1,1.531,1.531,10.729,10.729,0,0,0,1.369,5.227,1.531,1.531,0,0,1-.583,2.086A1.51,1.51,0,0,1,421.958,505.707Zm47.43-5.585h-.051a1.531,1.531,0,0,1-1.481-1.582v-6.2a1.531,1.531,0,1,1,3.063,0v6.3a1.531,1.531,0,0,1-1.531,1.481Zm-49-6.639a1.531,1.531,0,0,1-1.531-1.531v-6.247a1.531,1.531,0,1,1,3.063,0v6.247a1.531,1.531,0,0,1-1.525,1.531Zm49-5.856a1.531,1.531,0,0,1-1.531-1.531V479.85a1.531,1.531,0,0,1,3.063,0v6.242a1.531,1.531,0,0,1-1.525,1.531Zm-49-6.639a1.531,1.531,0,0,1-1.531-1.531v-5.784c0-.175,0-.348.011-.522a1.515,1.515,0,0,1,1.59-1.47,1.531,1.531,0,0,1,1.47,1.59c0,.133,0,.268,0,.4v5.784a1.531,1.531,0,0,1-1.533,1.531Zm49-5.856a1.531,1.531,0,0,1-1.531-1.522,10.7,10.7,0,0,0-1.39-5.222,1.532,1.532,0,0,1,2.665-1.511,13.783,13.783,0,0,1,1.789,6.717,1.531,1.531,0,0,1-1.531,1.531Zm-47.217-6.3a1.531,1.531,0,0,1-1.306-2.329,13.835,13.835,0,0,1,5-4.83,1.531,1.531,0,0,1,1.505,2.666,10.789,10.789,0,0,0-3.888,3.76,1.531,1.531,0,0,1-1.3.734Zm41.323-4.1a1.531,1.531,0,0,1-.795-.222,10.7,10.7,0,0,0-5.178-1.547,1.532,1.532,0,1,1,.109-3.063,13.783,13.783,0,0,1,6.66,1.991,1.531,1.531,0,0,1-.8,2.839Zm-12.165-1.776H445.08a1.531,1.531,0,0,1,0-3.063h6.248a1.531,1.531,0,0,1,0,3.063Zm-12.495,0h-6.2a1.551,1.551,0,0,1-1.554-1.531,1.511,1.511,0,0,1,1.507-1.531h6.247a1.531,1.531,0,0,1,0,3.063Z" transform="translate(-418.852 -386.384)"/>
        <path id="Path_2479" data-name="Path 2479" class="cls-5" d="M545.8,511.958h-6.343a1.531,1.531,0,0,1,0-3.063H545.7a1.573,1.573,0,0,1,1.579,1.531,1.491,1.491,0,0,1-1.482,1.531Zm-12.591,0h-6.247a1.531,1.531,0,0,1,0-3.063h6.247a1.531,1.531,0,0,1,0,3.063Zm-12.493-.009h-.061A13.782,13.782,0,0,1,514,509.934a1.531,1.531,0,1,1,1.6-2.6,10.732,10.732,0,0,0,5.172,1.567,1.532,1.532,0,1,1-.058,3.063Zm31.049-1.593a1.531,1.531,0,0,1-.766-2.862,10.805,10.805,0,0,0,3.874-3.775,1.532,1.532,0,1,1,2.62,1.587,13.858,13.858,0,0,1-4.978,4.848,1.507,1.507,0,0,1-.751.2Zm-41.246-4.649a1.531,1.531,0,0,1-1.335-.779,13.782,13.782,0,0,1-1.763-6.724,1.531,1.531,0,0,1,1.531-1.531h0a1.531,1.531,0,0,1,1.531,1.531,10.7,10.7,0,0,0,1.369,5.225,1.531,1.531,0,0,1-1.334,2.283Zm47.43-5.585H557.9a1.531,1.531,0,0,1-1.481-1.58v-6.2a1.531,1.531,0,1,1,3.063,0l-.009,6.3a1.531,1.531,0,0,1-1.522,1.481Zm-49-6.637a1.531,1.531,0,0,1-1.531-1.531v-6.248a1.531,1.531,0,1,1,3.063,0v6.248a1.531,1.531,0,0,1-1.525,1.531Zm49-5.858a1.531,1.531,0,0,1-1.531-1.531v-6.248a1.531,1.531,0,0,1,3.063,0v6.244a1.531,1.531,0,0,1-1.525,1.531Zm-49-6.637a1.531,1.531,0,0,1-1.531-1.531v-5.786c0-.175,0-.348.011-.522a1.511,1.511,0,0,1,1.59-1.47,1.531,1.531,0,0,1,1.47,1.59v6.188a1.531,1.531,0,0,1-1.533,1.532Zm49-5.858a1.531,1.531,0,0,1-1.531-1.531,10.712,10.712,0,0,0-1.391-5.221,1.531,1.531,0,0,1,2.662-1.513,13.784,13.784,0,0,1,1.792,6.717,1.531,1.531,0,0,1-1.522,1.541Zm-47.217-6.3a1.531,1.531,0,0,1-1.306-2.329,13.87,13.87,0,0,1,5-4.832,1.532,1.532,0,0,1,1.508,2.666,10.781,10.781,0,0,0-3.888,3.761,1.531,1.531,0,0,1-1.3.734Zm41.322-4.1a1.531,1.531,0,0,1-.793-.222,10.7,10.7,0,0,0-5.178-1.547,1.531,1.531,0,0,1-1.476-1.585,1.562,1.562,0,0,1,1.583-1.478,13.783,13.783,0,0,1,6.662,1.991,1.531,1.531,0,0,1-.8,2.839Zm-12.164-1.776H533.64a1.531,1.531,0,1,1,0-3.063h6.248a1.531,1.531,0,1,1,0,3.063Zm-12.495,0h-6.2a1.551,1.551,0,0,1-1.556-1.531,1.51,1.51,0,0,1,1.508-1.531v1.531l.009-1.531h6.237a1.531,1.531,0,1,1,0,3.063Z" transform="translate(-371.792 -386.384)"/>
        <path id="Path_2480" data-name="Path 2480" class="cls-5" d="M501.8,511.958h-6.343a1.531,1.531,0,1,1,0-3.063H501.7a1.573,1.573,0,0,1,1.579,1.531,1.492,1.492,0,0,1-1.484,1.531Zm-12.59,0H482.96a1.531,1.531,0,1,1,0-3.063h6.248a1.531,1.531,0,1,1,0,3.063Zm-12.493-.009h-.061A13.782,13.782,0,0,1,470,509.934a1.531,1.531,0,1,1,1.6-2.6,10.736,10.736,0,0,0,5.172,1.567,1.532,1.532,0,1,1-.058,3.063Zm31.05-1.593A1.531,1.531,0,0,1,507,507.5a10.8,10.8,0,0,0,3.875-3.776,1.531,1.531,0,1,1,2.62,1.586,13.866,13.866,0,0,1-4.975,4.85,1.531,1.531,0,0,1-.753.2Zm-41.248-4.649a1.531,1.531,0,0,1-1.337-.781,13.8,13.8,0,0,1-1.763-6.723,1.531,1.531,0,0,1,1.531-1.531h0a1.531,1.531,0,0,1,1.531,1.531,10.721,10.721,0,0,0,1.371,5.227,1.531,1.531,0,0,1-.585,2.086,1.51,1.51,0,0,1-.749.192Zm47.43-5.585H513.9a1.531,1.531,0,0,1-1.479-1.58v-6.2a1.531,1.531,0,0,1,3.063,0v6.3a1.531,1.531,0,0,1-1.531,1.481Zm-49-6.637a1.531,1.531,0,0,1-1.531-1.531v-6.248a1.531,1.531,0,1,1,3.063,0v6.248a1.531,1.531,0,0,1-1.525,1.531Zm49-5.858a1.531,1.531,0,0,1-1.531-1.531v-6.248a1.531,1.531,0,0,1,3.063,0v6.244a1.531,1.531,0,0,1-1.525,1.531Zm-49-6.639a1.531,1.531,0,0,1-1.531-1.531v-5.784c0-.175,0-.348.009-.522a1.515,1.515,0,0,1,1.59-1.47,1.531,1.531,0,0,1,1.47,1.59v6.187a1.531,1.531,0,0,1-1.531,1.531Zm49-5.856a1.531,1.531,0,0,1-1.531-1.522,10.709,10.709,0,0,0-1.392-5.222,1.532,1.532,0,1,1,2.665-1.511,13.8,13.8,0,0,1,1.79,6.715,1.531,1.531,0,0,1-1.531,1.541Zm-47.217-6.3a1.531,1.531,0,0,1-1.306-2.329,13.846,13.846,0,0,1,5-4.83,1.531,1.531,0,1,1,1.507,2.666,10.763,10.763,0,0,0-3.888,3.759,1.531,1.531,0,0,1-1.3.734Zm41.321-4.1a1.531,1.531,0,0,1-.795-.222,10.7,10.7,0,0,0-5.176-1.547,1.532,1.532,0,1,1,.107-3.063,13.781,13.781,0,0,1,6.66,1.991,1.531,1.531,0,0,1-.8,2.839Zm-12.164-1.776H489.64a1.531,1.531,0,0,1,0-3.063h6.248a1.531,1.531,0,0,1,0,3.063Zm-12.5,0h-6.2a1.553,1.553,0,0,1-1.556-1.531,1.511,1.511,0,0,1,1.507-1.531h6.247a1.531,1.531,0,0,1,0,3.063Z" transform="translate(-395.173 -386.384)"/>
        <path id="Path_2481" data-name="Path 2481" class="cls-5" d="M457.239,463.958h-6.345a1.531,1.531,0,0,1,0-3.063h6.248a1.573,1.573,0,0,1,1.579,1.531,1.491,1.491,0,0,1-1.482,1.531Zm-12.591,0H438.4a1.531,1.531,0,0,1,0-3.063h6.251a1.531,1.531,0,0,1,0,3.063Zm-12.493-.009h-.06a13.773,13.773,0,0,1-6.652-2.017,1.531,1.531,0,1,1,1.6-2.6,10.72,10.72,0,0,0,5.172,1.568,1.532,1.532,0,1,1-.06,3.063Zm31.05-1.593a1.531,1.531,0,0,1-.766-2.861,10.814,10.814,0,0,0,3.876-3.776,1.532,1.532,0,0,1,2.62,1.587,13.859,13.859,0,0,1-4.977,4.85,1.532,1.532,0,0,1-.754.2Zm-41.248-4.649a1.531,1.531,0,0,1-1.337-.781,13.8,13.8,0,0,1-1.763-6.723,1.531,1.531,0,0,1,1.531-1.531h0a1.531,1.531,0,0,1,1.531,1.531,10.729,10.729,0,0,0,1.369,5.227,1.531,1.531,0,0,1-.583,2.086,1.509,1.509,0,0,1-.749.192Zm47.43-5.585h-.051a1.531,1.531,0,0,1-1.481-1.582v-6.2a1.531,1.531,0,1,1,3.063,0v6.3a1.531,1.531,0,0,1-1.531,1.481Zm-49-6.639a1.531,1.531,0,0,1-1.531-1.531v-6.247a1.531,1.531,0,1,1,3.063,0v6.247a1.531,1.531,0,0,1-1.525,1.531Zm49-5.856a1.531,1.531,0,0,1-1.531-1.531v-6.247a1.531,1.531,0,0,1,3.063,0v6.242a1.531,1.531,0,0,1-1.525,1.531Zm-49-6.639a1.531,1.531,0,0,1-1.531-1.531v-5.784c0-.175,0-.348.011-.522a1.533,1.533,0,0,1,3.063.119v6.187a1.531,1.531,0,0,1-1.536,1.531Zm49-5.856a1.531,1.531,0,0,1-1.531-1.522,10.7,10.7,0,0,0-1.39-5.222,1.532,1.532,0,0,1,2.665-1.512,13.783,13.783,0,0,1,1.789,6.717,1.531,1.531,0,0,1-1.531,1.531Zm-47.217-6.3a1.531,1.531,0,0,1-1.306-2.329,13.834,13.834,0,0,1,5-4.83,1.531,1.531,0,0,1,1.505,2.666,10.79,10.79,0,0,0-3.888,3.76,1.531,1.531,0,0,1-1.3.734Zm41.323-4.1a1.531,1.531,0,0,1-.795-.222,10.7,10.7,0,0,0-5.178-1.547,1.531,1.531,0,0,1-1.476-1.585,1.564,1.564,0,0,1,1.585-1.478,13.784,13.784,0,0,1,6.66,1.991,1.531,1.531,0,0,1-.8,2.839Zm-12.165-1.776H445.08a1.531,1.531,0,0,1,0-3.063h6.248a1.531,1.531,0,0,1,0,3.063Zm-12.495,0h-6.2a1.551,1.551,0,0,1-1.554-1.531,1.511,1.511,0,0,1,1.507-1.531h6.247a1.531,1.531,0,0,1,0,3.063Z" transform="translate(-418.852 -411.891)"/>
        <path id="Path_2482" data-name="Path 2482" class="cls-5" d="M545.8,463.958h-6.343a1.531,1.531,0,0,1,0-3.063H545.7a1.573,1.573,0,0,1,1.579,1.531,1.491,1.491,0,0,1-1.482,1.531Zm-12.591,0h-6.247a1.531,1.531,0,0,1,0-3.063h6.247a1.531,1.531,0,0,1,0,3.063Zm-12.493-.009h-.061A13.783,13.783,0,0,1,514,461.934a1.531,1.531,0,1,1,1.6-2.6,10.731,10.731,0,0,0,5.172,1.567,1.532,1.532,0,1,1-.058,3.063Zm31.049-1.593a1.531,1.531,0,0,1-.766-2.862,10.805,10.805,0,0,0,3.874-3.775,1.532,1.532,0,1,1,2.62,1.587,13.858,13.858,0,0,1-4.978,4.848,1.507,1.507,0,0,1-.751.2Zm-41.246-4.649a1.531,1.531,0,0,1-1.335-.779,13.782,13.782,0,0,1-1.763-6.724,1.531,1.531,0,0,1,1.531-1.531h0a1.531,1.531,0,0,1,1.531,1.531,10.7,10.7,0,0,0,1.369,5.225,1.531,1.531,0,0,1-1.334,2.283Zm47.43-5.585H557.9a1.531,1.531,0,0,1-1.481-1.58v-6.2a1.531,1.531,0,1,1,3.063,0l-.009,6.3a1.531,1.531,0,0,1-1.522,1.481Zm-49-6.637a1.531,1.531,0,0,1-1.531-1.531v-6.248a1.531,1.531,0,1,1,3.063,0v6.248a1.531,1.531,0,0,1-1.525,1.531Zm49-5.858a1.531,1.531,0,0,1-1.531-1.531v-6.248a1.531,1.531,0,0,1,3.063,0v6.244a1.531,1.531,0,0,1-1.525,1.531Zm-49-6.637a1.531,1.531,0,0,1-1.531-1.531v-5.786c0-.175,0-.348.011-.522a1.531,1.531,0,1,1,3.06.119v6.188a1.531,1.531,0,0,1-1.533,1.532Zm49-5.858a1.531,1.531,0,0,1-1.531-1.531,10.712,10.712,0,0,0-1.391-5.221,1.531,1.531,0,0,1,2.662-1.513,13.783,13.783,0,0,1,1.792,6.717,1.531,1.531,0,0,1-1.522,1.541Zm-47.217-6.3a1.531,1.531,0,0,1-1.306-2.329,13.87,13.87,0,0,1,5-4.832,1.532,1.532,0,0,1,1.508,2.666,10.782,10.782,0,0,0-3.888,3.761,1.531,1.531,0,0,1-1.3.734Zm41.322-4.1a1.531,1.531,0,0,1-.793-.222,10.7,10.7,0,0,0-5.178-1.547,1.531,1.531,0,0,1-1.476-1.585,1.562,1.562,0,0,1,1.583-1.478,13.783,13.783,0,0,1,6.662,1.991,1.531,1.531,0,0,1-.8,2.839Zm-12.164-1.776H533.64a1.531,1.531,0,0,1,0-3.063h6.248a1.531,1.531,0,0,1,0,3.063Zm-12.495,0h-6.2a1.551,1.551,0,0,1-1.556-1.531,1.51,1.51,0,0,1,1.508-1.531v1.531l.009-1.531h6.237a1.531,1.531,0,0,1,0,3.063Z" transform="translate(-371.792 -411.891)"/>
        <path id="Path_2483" data-name="Path 2483" class="cls-5" d="M501.8,463.958h-6.343a1.531,1.531,0,1,1,0-3.063H501.7a1.573,1.573,0,0,1,1.579,1.531,1.492,1.492,0,0,1-1.484,1.531Zm-12.59,0H482.96a1.531,1.531,0,0,1,0-3.063h6.248a1.531,1.531,0,0,1,0,3.063Zm-12.493-.009h-.061A13.783,13.783,0,0,1,470,461.934a1.531,1.531,0,1,1,1.6-2.6,10.736,10.736,0,0,0,5.172,1.567,1.532,1.532,0,0,1-.058,3.063Zm31.05-1.593A1.531,1.531,0,0,1,507,459.5a10.8,10.8,0,0,0,3.874-3.776,1.531,1.531,0,1,1,2.62,1.586,13.867,13.867,0,0,1-4.975,4.85,1.532,1.532,0,0,1-.753.2Zm-41.248-4.649a1.531,1.531,0,0,1-1.337-.781,13.8,13.8,0,0,1-1.763-6.723,1.531,1.531,0,0,1,1.531-1.531h0a1.531,1.531,0,0,1,1.531,1.531,10.721,10.721,0,0,0,1.371,5.227,1.531,1.531,0,0,1-.585,2.086,1.51,1.51,0,0,1-.749.192Zm47.43-5.585H513.9a1.531,1.531,0,0,1-1.479-1.58v-6.2a1.531,1.531,0,0,1,3.063,0v6.3a1.531,1.531,0,0,1-1.531,1.481Zm-49-6.637a1.531,1.531,0,0,1-1.531-1.531v-6.248a1.531,1.531,0,1,1,3.063,0v6.248a1.531,1.531,0,0,1-1.525,1.531Zm49-5.858a1.531,1.531,0,0,1-1.531-1.531v-6.248a1.531,1.531,0,0,1,3.063,0v6.244a1.531,1.531,0,0,1-1.525,1.531Zm-49-6.639a1.531,1.531,0,0,1-1.531-1.531v-5.784c0-.175,0-.348.009-.522a1.533,1.533,0,0,1,3.063.12c0,.133,0,.268,0,.4v5.784a1.531,1.531,0,0,1-1.534,1.531Zm49-5.856a1.531,1.531,0,0,1-1.531-1.522,10.709,10.709,0,0,0-1.392-5.222,1.532,1.532,0,1,1,2.665-1.511,13.8,13.8,0,0,1,1.79,6.715,1.531,1.531,0,0,1-1.531,1.541Zm-47.217-6.3a1.531,1.531,0,0,1-1.306-2.329,13.847,13.847,0,0,1,5-4.83,1.531,1.531,0,1,1,1.507,2.666,10.764,10.764,0,0,0-3.888,3.759,1.532,1.532,0,0,1-1.3.734Zm41.321-4.1a1.531,1.531,0,0,1-.795-.222,10.7,10.7,0,0,0-5.176-1.547,1.531,1.531,0,0,1-1.478-1.585,1.564,1.564,0,0,1,1.585-1.478,13.783,13.783,0,0,1,6.66,1.991,1.531,1.531,0,0,1-.8,2.839Zm-12.164-1.776H489.64a1.531,1.531,0,0,1,0-3.063h6.248a1.531,1.531,0,0,1,0,3.063Zm-12.5,0h-6.2a1.553,1.553,0,0,1-1.556-1.531,1.511,1.511,0,0,1,1.507-1.531h6.247a1.531,1.531,0,0,1,0,3.063Z" transform="translate(-395.173 -411.891)"/>
      </g>
      <rect id="Rectangle_807" data-name="Rectangle 807" class="cls-20" width="49.004" height="49.004" rx="8" transform="translate(408.427 310.448)"/>
      <path id="Path_2484" data-name="Path 2484" class="cls-21" d="M456.2,556.891H431.7a12.242,12.242,0,0,0-11.084,7.06l47.838,8.614v-3.423A12.251,12.251,0,0,0,456.2,556.891Z" transform="translate(-11.026 -246.443)"/>
      <rect id="Rectangle_808" data-name="Rectangle 808" class="cls-6" width="49.004" height="49.004" rx="8" transform="translate(476.666 310.448)"/>
      <path id="Path_2486" data-name="Path 2486" class="cls-22" d="M500.764,556.891h-24.5a12.24,12.24,0,0,0-11.084,7.06l47.838,8.614v-3.423A12.251,12.251,0,0,0,500.764,556.891Z" transform="translate(12.655 -246.443)"/>
      <path id="Path_2487" data-name="Path 2487" class="cls-23" d="M477.73,610.022a15.331,15.331,0,0,1-15.314-15.314v-24.5a15.331,15.331,0,0,1,15.314-15.314h24.5a15.331,15.331,0,0,1,15.314,15.314v24.5Zm0-49a9.2,9.2,0,0,0-9.188,9.188v24.5a9.2,9.2,0,0,0,9.188,9.188h24.5a9.2,9.2,0,0,0,9.188-9.188v-24.5a9.2,9.2,0,0,0-9.188-9.188Z" transform="translate(11.187 -247.506)"/>
      <rect id="Rectangle_809" data-name="Rectangle 809" class="cls-24" width="49.004" height="49.004" rx="8" transform="translate(544.047 236.941)"/>
      <path id="Path_2488" data-name="Path 2488" class="cls-25" d="M544.764,508.891h-24.5a12.24,12.24,0,0,0-11.084,7.06l47.838,8.614v-3.423A12.251,12.251,0,0,0,544.764,508.891Z" transform="translate(36.036 -271.95)"/>
      <rect id="Rectangle_810" data-name="Rectangle 810" class="cls-26" width="49.004" height="49.004" rx="8" transform="translate(476.666 163.434)"/>
      <path id="Path_2490" data-name="Path 2490" class="cls-27" d="M500.764,460.891h-24.5a12.24,12.24,0,0,0-11.084,7.06l47.838,8.614v-3.423A12.251,12.251,0,0,0,500.764,460.891Z" transform="translate(12.655 -297.457)"/>
      <path id="Path_2492" data-name="Path 2492" class="cls-28" d="M523.392,518.006l14.08,8.129a3.038,3.038,0,0,1,0,5.262l-14.08,8.13a3.038,3.038,0,0,1-4.557-2.632V520.637a3.038,3.038,0,0,1,4.557-2.631Z" transform="translate(41.168 -267.322)"/>
      <path id="Path_2493" data-name="Path 2493" class="cls-28" d="M490.832,566.683h-12.91a4.965,4.965,0,0,0-4.965,4.965v9.473a4.966,4.966,0,0,0,4.965,4.965h.392l-1.072,4.288a.346.346,0,0,0,.538.368l6.527-4.651h6.519a4.966,4.966,0,0,0,4.965-4.965v-9.473a4.965,4.965,0,0,0-4.959-4.969Z" transform="translate(16.789 -241.24)"/>
      <path id="Path_2494" data-name="Path 2494" class="cls-28" d="M437.822,585.637a5.019,5.019,0,0,1-3.561-1.473l-5.626-5.626a3.063,3.063,0,1,1,4.331-4.331l4.856,4.856L449.7,567.185a3.063,3.063,0,1,1,4.331,4.331l-12.648,12.647a5.02,5.02,0,0,1-3.56,1.473Z" transform="translate(-7.24 -241.45)"/>
      <path id="Path_2495" data-name="Path 2495" class="cls-28" d="M485.442,496.4a14.482,14.482,0,1,1,14.481-14.482A14.483,14.483,0,0,1,485.442,496.4Zm0-22.838a8.357,8.357,0,1,0,8.355,8.356,8.357,8.357,0,0,0-8.355-8.356Z" transform="translate(15.727 -293.98)"/>
      <path id="Path_2496" data-name="Path 2496" class="cls-28" d="M457.976,460.676l-.242-22.914-15.344.162a40.5,40.5,0,0,0-3.464-8.132l10.732-10.96L433.284,402.8l-10.732,10.96a40.637,40.637,0,0,0-8.2-3.292l-.162-15.343-22.914.24.153,15.344a40.749,40.749,0,0,0-8.132,3.464l-10.96-10.732L356.3,419.817l10.96,10.732a40.581,40.581,0,0,0-3.291,8.2l-15.344.162.242,22.914,15.344-.162a40.534,40.534,0,0,0,3.464,8.132l-10.732,10.96,16.374,16.032,10.732-10.96a40.57,40.57,0,0,0,8.2,3.291l.161,15.344,22.914-.242-.161-15.343a40.7,40.7,0,0,0,8.13-3.464l10.962,10.73,16.04-16.373-10.96-10.732a40.591,40.591,0,0,0,3.291-8.2Zm-54.482,7a17.887,17.887,0,1,1,17.7-18.07,17.887,17.887,0,0,1-17.7,18.07Z" transform="translate(-49.279 -332.404)"/>
      <path id="Path_2497" data-name="Path 2497" class="cls-6" d="M457.976,460.676l-.242-22.914-15.344.162a40.5,40.5,0,0,0-3.464-8.132l10.732-10.96L433.284,402.8l-10.732,10.96a40.637,40.637,0,0,0-8.2-3.292l-.162-15.343-22.914.24.153,15.344a40.749,40.749,0,0,0-8.132,3.464l-10.96-10.732L356.3,419.817l10.96,10.732a40.581,40.581,0,0,0-3.291,8.2l-15.344.162.242,22.914,15.344-.162a40.534,40.534,0,0,0,3.464,8.132l-10.732,10.96,16.374,16.032,10.732-10.96a40.57,40.57,0,0,0,8.2,3.291l.161,15.344,22.914-.242-.161-15.343a40.7,40.7,0,0,0,8.13-3.464l10.962,10.73,16.04-16.373-10.96-10.732a40.591,40.591,0,0,0,3.291-8.2Zm-54.482,7a17.887,17.887,0,1,1,17.7-18.07,17.887,17.887,0,0,1-17.7,18.07Z" transform="translate(-49.279 -332.404)"/>
      <path id="Path_2498" data-name="Path 2498" class="cls-29" d="M457.976,460.676l-.242-22.914-15.344.162a40.5,40.5,0,0,0-3.464-8.132l10.732-10.96L433.284,402.8l-10.732,10.96a40.637,40.637,0,0,0-8.2-3.292l-.162-15.343-22.914.24.153,15.344a40.749,40.749,0,0,0-8.132,3.464l-10.96-10.732L356.3,419.817l10.96,10.732a40.581,40.581,0,0,0-3.291,8.2l-15.344.162.242,22.914,15.344-.162a40.534,40.534,0,0,0,3.464,8.132l-10.732,10.96,16.374,16.032,10.732-10.96a40.57,40.57,0,0,0,8.2,3.291l.161,15.344,22.914-.242-.161-15.343a40.7,40.7,0,0,0,8.13-3.464l10.962,10.73,16.04-16.373-10.96-10.732a40.591,40.591,0,0,0,3.291-8.2Zm-54.482,7a17.887,17.887,0,1,1,17.7-18.07,17.887,17.887,0,0,1-17.7,18.07Z" transform="translate(-49.279 -332.404)"/>
      <g id="Group_1051" data-name="Group 1051" class="cls-30" transform="translate(299.356 62.721)">
        <path id="Path_2499" data-name="Path 2499" class="cls-6" d="M416.157,423.027c.011.035.023.067.034.1l5.666-.06v-.1Z" transform="translate(-312.75 -380.33)"/>
        <path id="Path_2500" data-name="Path 2500" class="cls-6" d="M405.607,411.1l5.992-6.126-4.945-4.842-7.914,8.083A40.441,40.441,0,0,1,405.607,411.1Z" transform="translate(-322.005 -392.464)"/>
        <path id="Path_2501" data-name="Path 2501" class="cls-6" d="M392.154,419.145a17.884,17.884,0,0,0-4.637.678,17.87,17.87,0,0,1-.034,34.413,17.884,17.884,0,1,0,4.671-35.092Z" transform="translate(-327.987 -382.361)"/>
        <path id="Path_2502" data-name="Path 2502" class="cls-6" d="M375.613,411.2l3.035,2.971a40.586,40.586,0,0,1,8.132-3.464l-.162-15.345,13.231-.139v-.1l-22.914.24.153,15.344C376.595,410.86,376.1,411.033,375.613,411.2Z" transform="translate(-334.295 -395.125)"/>
        <path id="Path_2503" data-name="Path 2503" class="cls-6" d="M387.269,457.642a40.641,40.641,0,0,1-8.2-3.291l-2.818,2.878c.444.141.885.288,1.337.413l.161,15.344,9.685-.1Z" transform="translate(-333.957 -363.653)"/>
        <path id="Path_2504" data-name="Path 2504" class="cls-6" d="M358.318,436.028l15.343-.162a40.594,40.594,0,0,1,3.293-8.2l-10.96-10.732L377.284,405.4l-4.945-4.842-16.032,16.375,10.96,10.732a40.589,40.589,0,0,0-3.291,8.2l-15.344.162.242,22.914,9.685-.1Z" transform="translate(-348.632 -392.239)"/>
        <path id="Path_2505" data-name="Path 2505" class="cls-6" d="M406.026,454.084a40.419,40.419,0,0,1-6.651,2.972l7.926,7.76,4.747-4.841Z" transform="translate(-321.668 -363.795)"/>
        <path id="Path_2506" data-name="Path 2506" class="cls-6" d="M363.749,457.668l10.73-10.96a40.715,40.715,0,0,1-3.464-8.132l-9.648.1a40.558,40.558,0,0,0,3.43,8.031l-10.732,10.96L370.44,473.7l4.747-4.842Z" transform="translate(-345.744 -372.036)"/>
      </g>
      <rect id="Rectangle_811" data-name="Rectangle 811" class="cls-5" width="212.059" height="152.156" rx="7.359" transform="translate(112.196 307.261)"/>
      <path id="Path_2508" data-name="Path 2508" class="cls-31" d="M237.685,554.81H427.2a11.271,11.271,0,0,1,11.271,11.271v13.354H226.416V566.079a11.27,11.27,0,0,1,11.269-11.269Z" transform="translate(-114.22 -247.549)"/>
      <path id="Path_2509" data-name="Path 2509" class="cls-5" d="M428.268,711.091H238.748a14.348,14.348,0,0,1-14.332-14.332V567.142a14.348,14.348,0,0,1,14.332-14.331h189.52A14.347,14.347,0,0,1,442.6,567.142V696.759a14.349,14.349,0,0,1-14.332,14.332ZM238.748,558.937a8.214,8.214,0,0,0-8.207,8.205V696.758a8.216,8.216,0,0,0,8.207,8.207h189.52a8.216,8.216,0,0,0,8.207-8.207V567.142a8.214,8.214,0,0,0-8.207-8.205Z" transform="translate(-115.283 -248.611)"/>
      <path id="Path_2510" data-name="Path 2510" class="cls-5" d="M428.268,711.091H238.748a14.348,14.348,0,0,1-14.332-14.332V567.142a14.348,14.348,0,0,1,14.332-14.331h189.52A14.347,14.347,0,0,1,442.6,567.142V696.759a14.349,14.349,0,0,1-14.332,14.332ZM238.748,558.937a8.214,8.214,0,0,0-8.207,8.205V696.758a8.216,8.216,0,0,0,8.207,8.207h189.52a8.216,8.216,0,0,0,8.207-8.207V567.142a8.214,8.214,0,0,0-8.207-8.205Z" transform="translate(-115.283 -248.611)"/>
      <path id="Path_2511" data-name="Path 2511" class="cls-5" d="M439.538,583.561H227.479a3.063,3.063,0,0,1-3.063-3.063V567.142a14.348,14.348,0,0,1,14.332-14.331H428.267A14.349,14.349,0,0,1,442.6,567.143V580.5a3.063,3.063,0,0,1-3.063,3.063Zm-209-6.126H436.475V567.143a8.217,8.217,0,0,0-8.208-8.207H238.748a8.214,8.214,0,0,0-8.207,8.205Z" transform="translate(-115.283 -248.611)"/>
      <path id="Path_2512" data-name="Path 2512" class="cls-28" d="M270.462,645.62H246.6a3.063,3.063,0,1,1,0-6.126h23.859a3.063,3.063,0,1,1,0,6.126Z" transform="translate(-105.121 -202.549)"/>
      <path id="Path_2513" data-name="Path 2513" class="cls-28" d="M237.234,645.62H235.57a3.063,3.063,0,1,1,0-6.126h1.665a3.063,3.063,0,1,1,0,6.126Z" transform="translate(-110.984 -202.549)"/>
      <path id="Path_2514" data-name="Path 2514" class="cls-28" d="M307.068,636.995H246.6a3.063,3.063,0,1,1,0-6.126h60.465a3.063,3.063,0,1,1,0,6.126Z" transform="translate(-105.121 -207.132)"/>
      <path id="Path_2515" data-name="Path 2515" class="cls-28" d="M237.234,636.995H235.57a3.063,3.063,0,1,1,0-6.126h1.665a3.063,3.063,0,1,1,0,6.126Z" transform="translate(-110.984 -207.132)"/>
      <path id="Path_2516" data-name="Path 2516" class="cls-32" d="M321.341,628.371H304.89a3.063,3.063,0,1,1,0-6.126h16.452a3.063,3.063,0,1,1,0,6.126Z" transform="translate(-74.148 -211.715)"/>
      <path id="Path_2517" data-name="Path 2517" class="cls-28" d="M306.121,628.371H275.478a3.063,3.063,0,1,1,0-6.126h30.643a3.063,3.063,0,1,1,0,6.126Z" transform="translate(-89.777 -211.715)"/>
      <path id="Path_2518" data-name="Path 2518" class="cls-33" d="M276.835,628.371H246.6a3.063,3.063,0,1,1,0-6.126h30.233a3.063,3.063,0,1,1,0,6.126Z" transform="translate(-105.121 -211.715)"/>
      <path id="Path_2519" data-name="Path 2519" class="cls-28" d="M237.234,628.371H235.57a3.063,3.063,0,1,1,0-6.126h1.665a3.063,3.063,0,1,1,0,6.126Z" transform="translate(-110.984 -211.715)"/>
      <path id="Path_2520" data-name="Path 2520" class="cls-28" d="M353.665,619.745H279.909a3.063,3.063,0,1,1,0-6.125h73.756a3.063,3.063,0,1,1,0,6.125Z" transform="translate(-87.422 -216.298)"/>
      <path id="Path_2521" data-name="Path 2521" class="cls-32" d="M285.062,619.745H246.6a3.063,3.063,0,1,1,0-6.125h38.459a3.063,3.063,0,1,1,0,6.125Z" transform="translate(-105.121 -216.298)"/>
      <path id="Path_2522" data-name="Path 2522" class="cls-28" d="M237.234,619.745H235.57a3.063,3.063,0,1,1,0-6.125h1.665a3.063,3.063,0,1,1,0,6.125Z" transform="translate(-110.984 -216.298)"/>
      <path id="Path_2523" data-name="Path 2523" class="cls-33" d="M307.47,611.125H279.9a3.063,3.063,0,1,1,0-6.125H307.47a3.063,3.063,0,1,1,0,6.125Z" transform="translate(-87.424 -220.879)"/>
      <path id="Path_2524" data-name="Path 2524" class="cls-34" d="M285.062,611.125H246.6a3.063,3.063,0,1,1,0-6.125h38.459a3.063,3.063,0,1,1,0,6.125Z" transform="translate(-105.121 -220.879)"/>
      <path id="Path_2525" data-name="Path 2525" class="cls-28" d="M237.234,611.125H235.57a3.063,3.063,0,1,1,0-6.125h1.665a3.063,3.063,0,1,1,0,6.125Z" transform="translate(-110.984 -220.879)"/>
      <path id="Path_2526" data-name="Path 2526" class="cls-32" d="M290.805,602.5h-7.4a3.063,3.063,0,1,1,0-6.125h7.4a3.063,3.063,0,1,1,0,6.125Z" transform="translate(-85.567 -225.465)"/>
      <path id="Path_2527" data-name="Path 2527" class="cls-33" d="M281.4,602.5h-17.07a3.063,3.063,0,1,1,0-6.125H281.4a3.063,3.063,0,1,1,0,6.125Z" transform="translate(-95.7 -225.465)"/>
      <path id="Path_2528" data-name="Path 2528" class="cls-35" d="M260.587,602.5H246.6a3.063,3.063,0,1,1,0-6.125h13.985a3.063,3.063,0,1,1,0,6.125Z" transform="translate(-105.121 -225.465)"/>
      <path id="Path_2529" data-name="Path 2529" class="cls-28" d="M237.234,602.5H235.57a3.063,3.063,0,1,1,0-6.125h1.665a3.063,3.063,0,1,1,0,6.125Z" transform="translate(-110.984 -225.465)"/>
      <path id="Path_2530" data-name="Path 2530" class="cls-32" d="M332.683,593.871H319.395a3.063,3.063,0,0,1,0-6.126h13.288a3.063,3.063,0,0,1,0,6.126Z" transform="translate(-66.44 -230.048)"/>
      <path id="Path_2531" data-name="Path 2531" class="cls-33" d="M326.508,593.871H274.269a3.063,3.063,0,0,1,0-6.126h52.239a3.063,3.063,0,0,1,0,6.126Z" transform="translate(-90.419 -230.048)"/>
      <path id="Path_2532" data-name="Path 2532" class="cls-34" d="M277.659,593.871H246.6a3.063,3.063,0,0,1,0-6.126h31.057a3.063,3.063,0,0,1,0,6.126Z" transform="translate(-105.121 -230.048)"/>
      <path id="Path_2533" data-name="Path 2533" class="cls-28" d="M237.234,593.871H235.57a3.063,3.063,0,0,1,0-6.126h1.665a3.063,3.063,0,0,1,0,6.126Z" transform="translate(-110.984 -230.048)"/>
      <path id="Path_2534" data-name="Path 2534" class="cls-34" d="M325.053,585.246H297.9a3.063,3.063,0,1,1,0-6.126h27.148a3.063,3.063,0,1,1,0,6.126Z" transform="translate(-77.859 -234.631)"/>
      <path id="Path_2535" data-name="Path 2535" class="cls-36" d="M296.661,585.246H275.478a3.063,3.063,0,1,1,0-6.126h21.184a3.063,3.063,0,0,1,0,6.126Z" transform="translate(-89.777 -234.631)"/>
      <path id="Path_2536" data-name="Path 2536" class="cls-34" d="M272.365,585.246h-11.93a3.063,3.063,0,0,1,0-6.126h11.93a3.063,3.063,0,0,1,0,6.126Z" transform="translate(-97.77 -234.631)"/>
      <path id="Path_2537" data-name="Path 2537" class="cls-36" d="M256.269,585.246H246.6a3.063,3.063,0,1,1,0-6.126h9.666a3.063,3.063,0,1,1,0,6.126Z" transform="translate(-105.121 -234.631)"/>
      <path id="Path_2538" data-name="Path 2538" class="cls-28" d="M237.234,585.246H235.57a3.063,3.063,0,1,1,0-6.126h1.665a3.063,3.063,0,1,1,0,6.126Z" transform="translate(-110.984 -234.631)"/>
      <circle id="Ellipse_334" data-name="Ellipse 334" class="cls-26" cx="3.881" cy="3.881" r="3.881" transform="translate(129.222 315.693)"/>
      <circle id="Ellipse_335" data-name="Ellipse 335" class="cls-5" cx="3.881" cy="3.881" r="3.881" transform="translate(143.116 315.693)"/>
      <circle id="Ellipse_336" data-name="Ellipse 336" class="cls-5" cx="3.881" cy="3.881" r="3.881" transform="translate(157.01 315.693)"/>
      <rect id="Rectangle_812" data-name="Rectangle 812" class="cls-28" width="161.695" height="148.32" rx="8" transform="translate(238.969 197.062)"/>
      <rect id="Rectangle_813" data-name="Rectangle 813" class="cls-28" width="161.695" height="148.32" rx="8" transform="translate(238.969 197.062)"/>
      <g class="cls-39" transform="matrix(1, 0, 0, 1, 0, 0)">
        <path id="Path_2539-2" data-name="Path 2539" class="cls-23" d="M322.514,635.291A15.331,15.331,0,0,1,307.2,619.977V496.164a15.331,15.331,0,0,1,15.314-15.314H459.706a15.331,15.331,0,0,1,15.314,15.314V619.977Zm0-148.315a9.2,9.2,0,0,0-9.188,9.188V619.977a9.2,9.2,0,0,0,9.188,9.188H459.706a9.2,9.2,0,0,0,9.188-9.188V496.164a9.2,9.2,0,0,0-9.188-9.188Z" transform="translate(-71.29 -286.85)"/>
      </g>
      <rect id="Rectangle_814" data-name="Rectangle 814" class="cls-37" width="132.85" height="88.311" transform="translate(252.953 209.6)"/>
      <path id="Path_2541" data-name="Path 2541" class="cls-5" d="M403.238,562.018H319.395a3.063,3.063,0,1,1,0-6.126h83.844a3.063,3.063,0,0,1,0,6.126Z" transform="translate(-66.44 -246.974)"/>
      <path id="Path_2542" data-name="Path 2542" class="cls-5" d="M369.038,571.251H319.395a3.063,3.063,0,1,1,0-6.125h49.643a3.063,3.063,0,1,1,0,6.125Z" transform="translate(-66.44 -242.067)"/>
      <path id="Path_2543" data-name="Path 2543" class="cls-5" d="M328.072,552.326a3.063,3.063,0,0,1-2.153-5.24l28.637-28.331a3.063,3.063,0,0,1,4.32.012L385.511,545.4a3.063,3.063,0,1,1-4.331,4.331l-24.485-24.481L330.226,551.44A3.05,3.05,0,0,1,328.072,552.326Z" transform="translate(-61.829 -267.179)"/>
      <path id="Path_2544" data-name="Path 2544" class="cls-5" d="M418.49,558.16a3.052,3.052,0,0,1-2.429-1.2L383.6,514.745,358.3,542.976a3.064,3.064,0,1,1-4.564-4.089l27.756-30.977a3.063,3.063,0,0,1,4.709.178l34.712,45.142a3.063,3.063,0,0,1-2.426,4.93Z" transform="translate(-46.978 -273.012)"/>
      <path id="Path_2545" data-name="Path 2545" class="cls-5" d="M399.178,576.333a10.577,10.577,0,1,1,10.579-10.578,10.577,10.577,0,0,1-10.579,10.578Zm0-15.029a4.452,4.452,0,1,0,4.453,4.452,4.452,4.452,0,0,0-4.453-4.452Z" transform="translate(-28.037 -247.354)"/>
      <circle id="Ellipse_337" data-name="Ellipse 337" class="cls-6" cx="9.427" cy="9.427" r="9.427" transform="translate(293.877 227.563)"/>
      <path id="Path_2546" data-name="Path 2546" class="cls-5" d="M355.544,525.747a12.49,12.49,0,1,1,12.49-12.49A12.49,12.49,0,0,1,355.544,525.747Zm0-18.854a6.364,6.364,0,1,0,6.364,6.364A6.364,6.364,0,0,0,355.544,506.892Z" transform="translate(-52.24 -276.267)"/>
      <path id="Path_2548" data-name="Path 2548" class="cls-13" d="M305.121,458.442H294.29a3.063,3.063,0,1,1,0-6.126h10.831a3.063,3.063,0,0,1,0,6.126Z" transform="translate(-79.781 -302.013)"/>
      <path id="Path_2550" data-name="Path 2550" class="cls-13" d="M317.312,446.017h-6.126a3.063,3.063,0,1,1,0-6.126h6.126a3.063,3.063,0,1,1,0,6.126Z" transform="translate(-70.802 -308.616)"/>
      <path id="Path_2551" data-name="Path 2551" class="cls-13" d="M311.527,536.859H279.576a3.063,3.063,0,1,1,0-6.126h31.951a3.063,3.063,0,1,1,0,6.126Z" transform="translate(-87.599 -260.343)"/>
      <path id="Path_2552" data-name="Path 2552" class="cls-13" d="M276.885,536.859h-8.441a3.063,3.063,0,1,1,0-6.126h8.441a3.063,3.063,0,1,1,0,6.126Z" transform="translate(-93.515 -260.343)"/>
      <path id="Path_2553" data-name="Path 2553" class="cls-13" d="M304.961,524.435H291.931a3.063,3.063,0,0,1,0-6.126h13.031a3.063,3.063,0,0,1,0,6.126Z" transform="translate(-81.034 -266.945)"/>
      <path id="Path_2554" data-name="Path 2554" class="cls-13" d="M286.383,524.435H281.61a3.063,3.063,0,0,1,0-6.126h4.773a3.063,3.063,0,0,1,0,6.126Z" transform="translate(-86.519 -266.945)"/>
      <path id="Path_2555" data-name="Path 2555" class="cls-13" d="M643.257,391.755H612.835a3.063,3.063,0,0,1,0-6.126h30.423a3.063,3.063,0,0,1,0,6.126Z" transform="translate(89.491 -337.45)"/>
      <path id="Path_2556" data-name="Path 2556" class="cls-24" d="M609.145,391.755H600.7a3.063,3.063,0,0,1,0-6.126h8.441a3.063,3.063,0,1,1,0,6.126Z" transform="translate(83.044 -337.45)"/>
      <path id="Path_2557" data-name="Path 2557" class="cls-24" d="M637.222,379.326H624.192a3.063,3.063,0,0,1,0-6.126h13.031a3.063,3.063,0,0,1,0,6.126Z" transform="translate(95.526 -344.055)"/>
      <rect id="Rectangle_815" data-name="Rectangle 815" class="cls-24" width="146.13" height="84.349" rx="8.62" transform="translate(593.052 73.863)"/>
      <g id="Group_1052" data-name="Group 1052" class="cls-38" transform="translate(663.819 94.229)">
        <path id="Path_2560" data-name="Path 2560" class="cls-28" d="M640.664,420.294h-51.74a2.3,2.3,0,1,1,0-4.594h51.74a2.3,2.3,0,1,1,0,4.594Z" transform="translate(-586.627 -415.7)"/>
      </g>
      <g id="Group_1053" data-name="Group 1053" class="cls-38" transform="translate(663.819 110.889)">
        <path id="Path_2561" data-name="Path 2561" class="cls-28" d="M623.16,431.173H588.924a2.3,2.3,0,1,1,0-4.594H623.16a2.3,2.3,0,0,1,0,4.594Z" transform="translate(-586.627 -426.579)"/>
      </g>
      <g id="Group_1054" data-name="Group 1054" class="cls-38" transform="translate(663.819 125.672)">
        <rect id="Rectangle_816" data-name="Rectangle 816" class="cls-28" width="31.113" height="10.21" rx="3.334" transform="translate(2.297 2.297)"/>
        <path id="Path_2562" data-name="Path 2562" class="cls-28" d="M614.932,451.037h-20.9a7.4,7.4,0,0,1,0-14.805h20.9a7.4,7.4,0,0,1,0,14.806Zm-20.9-10.211a2.809,2.809,0,1,0,0,5.617h20.9a2.809,2.809,0,0,0,0-5.617Z" transform="translate(-586.627 -436.232)"/>
      </g>
      <path id="Path_2563" data-name="Path 2563" class="cls-28" d="M586.783,464.025H559.361a9.407,9.407,0,0,1-9.4-9.4V422.6a9.407,9.407,0,0,1,9.4-9.4h27.422a9.407,9.407,0,0,1,9.4,9.4v32.027A9.407,9.407,0,0,1,586.783,464.025ZM559.361,417.8a4.806,4.806,0,0,0-4.8,4.8v32.027a4.807,4.807,0,0,0,4.8,4.8h27.422a4.809,4.809,0,0,0,4.8-4.8V422.6a4.807,4.807,0,0,0-4.8-4.8Z" transform="translate(57.709 -322.796)"/>
      <path id="Path_2564" data-name="Path 2564" class="cls-28" d="M568.4,439.359a9.634,9.634,0,1,1,9.632-9.633A9.634,9.634,0,0,1,568.4,439.359Zm0-14.672a5.04,5.04,0,1,0,5.038,5.039A5.04,5.04,0,0,0,568.4,424.687Z" transform="translate(62.385 -319.137)"/>
      <path id="Path_2565" data-name="Path 2565" class="cls-28" d="M584.579,452.319a2.3,2.3,0,0,1-2.3-2.3,11.606,11.606,0,0,0-23.213,0,2.3,2.3,0,0,1-4.594,0,16.2,16.2,0,1,1,32.4,0A2.3,2.3,0,0,1,584.579,452.319Z" transform="translate(60.106 -311.841)"/>
    </g>
  </g>
</svg>
