<svg xmlns="http://www.w3.org/2000/svg" xmlns:xlink="http://www.w3.org/1999/xlink" width="212" height="150" viewBox="0 0 212 150">
  <defs>
    <style>
      .cls-1 {
        fill: #fff;
      }

      .cls-2 {
        fill: #4baea0;
      }

      .cls-3 {
        fill: #1e4091;
        font-size: 19px;
        font-family: Montserrat-Bold, Montserrat;
        font-weight: 700;
      }

      .cls-4 {
        fill: #3a5569;
      }

      .cls-5 {
        fill: #f2eeed;
      }

      .cls-6 {
        fill: #e2e1e0;
      }

      .cls-7 {
        fill: #e0e0df;
      }

      .cls-8 {
        fill: #fec656;
      }

      .cls-9 {
        fill: #f16d6e;
      }

      .cls-10 {
        fill: #ccc4c4;
      }

      .cls-11 {
        fill: #e0bba6;
      }

      .cls-12 {
        fill: #f7b044;
      }

      .cls-13 {
        filter: url(#Rectangle_607);
      }
    </style>
    <filter id="Rectangle_607" x="0" y="0" width="212" height="150" filterUnits="userSpaceOnUse">
      <feOffset dy="3" input="SourceAlpha"/>
      <feGaussianBlur stdDeviation="3" result="blur"/>
      <feFlood flood-opacity="0.302"/>
      <feComposite operator="in" in2="blur"/>
      <feComposite in="SourceGraphic"/>
    </filter>
  </defs>
  <g id="Group_817" data-name="Group 817" transform="translate(-743 -1622)">
    <g class="cls-13" transform="matrix(1, 0, 0, 1, 743, 1622)">
      <rect id="Rectangle_607-2" data-name="Rectangle 607" class="cls-1" width="194" height="132" rx="10" transform="translate(9 6)"/>
    </g>
    <rect id="Rectangle_665" data-name="Rectangle 665" class="cls-2" width="194" height="94" transform="translate(752 1628)"/>
    <text id="Pradeep_s" data-name="Pradeep’s" class="cls-3" transform="translate(799 1744)"><tspan x="0" y="0">Pradeep’s</tspan></text>
    <g id="open-book_1_" data-name="open-book (1)" transform="translate(804.913 1642.494)">
      <g id="Group_611" data-name="Group 611" transform="translate(0 4.089)">
        <rect id="Rectangle_632" data-name="Rectangle 632" class="cls-4" width="43.679" height="60.593"/>
        <rect id="Rectangle_633" data-name="Rectangle 633" class="cls-4" width="43.679" height="60.593" transform="translate(43.679)"/>
      </g>
      <path id="Path_1496" data-name="Path 1496" class="cls-5" d="M58.038,65.067H23.467V123.8H57.481s5.576.744,5.576,5.948V70.085A5,5,0,0,0,58.038,65.067Z" transform="translate(-19.378 -65.067)"/>
      <path id="Path_1497" data-name="Path 1497" class="cls-6" d="M255.685,65.067h34.571V123.8H256.243s-5.576.744-5.576,5.948V70.085A5,5,0,0,1,255.685,65.067Z" transform="translate(-206.988 -65.067)"/>
      <rect id="Rectangle_634" data-name="Rectangle 634" class="cls-7" width="25.092" height="1.673" transform="translate(11.152 7.435)"/>
      <rect id="Rectangle_635" data-name="Rectangle 635" class="cls-8" width="10.78" height="1.673" transform="translate(11.152 13.197)"/>
      <g id="Group_612" data-name="Group 612" transform="translate(11.152 18.959)">
        <rect id="Rectangle_636" data-name="Rectangle 636" class="cls-7" width="10.78" height="1.673"/>
        <rect id="Rectangle_637" data-name="Rectangle 637" class="cls-7" width="10.78" height="1.673" transform="translate(0 5.762)"/>
        <rect id="Rectangle_638" data-name="Rectangle 638" class="cls-7" width="25.092" height="1.673" transform="translate(0 11.71)"/>
        <rect id="Rectangle_639" data-name="Rectangle 639" class="cls-7" width="25.092" height="1.673" transform="translate(0 17.471)"/>
        <rect id="Rectangle_640" data-name="Rectangle 640" class="cls-7" width="25.092" height="1.673" transform="translate(0 23.233)"/>
        <rect id="Rectangle_641" data-name="Rectangle 641" class="cls-7" width="25.092" height="1.673" transform="translate(0 28.995)"/>
      </g>
      <rect id="Rectangle_642" data-name="Rectangle 642" class="cls-9" width="10.037" height="13.197" transform="translate(26.021 13.197)"/>
      <g id="Group_613" data-name="Group 613" transform="translate(50.928 7.435)">
        <rect id="Rectangle_643" data-name="Rectangle 643" class="cls-10" width="25.092" height="1.673"/>
        <rect id="Rectangle_644" data-name="Rectangle 644" class="cls-10" width="25.092" height="1.673" transform="translate(0 23.234)"/>
        <rect id="Rectangle_645" data-name="Rectangle 645" class="cls-10" width="25.092" height="1.673" transform="translate(0 40.519)"/>
      </g>
      <rect id="Rectangle_646" data-name="Rectangle 646" class="cls-11" width="10.037" height="13.197" transform="translate(65.797 13.197)"/>
      <rect id="Rectangle_647" data-name="Rectangle 647" class="cls-12" width="25.092" height="9.293" transform="translate(50.928 35.501)"/>
      <rect id="Rectangle_648" data-name="Rectangle 648" class="cls-11" width="10.037" height="13.197" transform="translate(50.928 13.197)"/>
    </g>
  </g>
</svg>
